<?xml version="1.0" encoding="utf-8"?>
<!-- Generator: Adobe Illustrator 27.5.0, SVG Export Plug-In . SVG Version: 6.00 Build 0)  -->
<svg version="1.1" xmlns="http://www.w3.org/2000/svg" xmlns:xlink="http://www.w3.org/1999/xlink" x="0px" y="0px"
	 viewBox="0 0 750 500" style="enable-background:new 0 0 750 500;" xml:space="preserve">
<g id="BACKGROUND">
	<rect x="125" style="fill-rule:evenodd;clip-rule:evenodd;fill:#333333;" width="500" height="500"/>
	<rect style="fill-rule:evenodd;clip-rule:evenodd;fill:#333333;" width="750" height="500"/>
</g>
<g id="OBJECTS">
	<g>
		<path style="fill-rule:evenodd;clip-rule:evenodd;fill:#E2E8F5;" d="M229.644,444.01h14.996h428.69
			c15.897,0,28.903-13.006,28.903-28.904l0,0c0-15.898-13.006-28.904-28.903-28.904h-12.02c-51.563,0-93.75-42.188-93.75-93.75
			c0-51.562-42.188-93.749-93.75-93.749l0.203-0.003h-77.331c-6.068,0-11.033-4.965-11.033-11.034l0,0
			c0-6.068,4.965-11.034,11.033-11.034h49.099c8.459,0,15.38-6.921,15.38-15.38l0,0c0-8.46-6.921-15.38-15.38-15.38H384.15
			c-17.084,0-31.062-13.979-31.062-31.064c0-17.085-13.979-31.064-31.065-31.064l0.067-0.001H244.64h-90.032
			c-17.393,0-31.623,14.23-31.623,31.622l0,0c0,17.392,14.23,31.622,31.623,31.622h47.537l-0.077,0.001
			c9.83,0.042,17.857,8.095,17.857,17.933l0,0c0,9.838-8.028,17.891-17.857,17.933l0.077,0c-19.499,0-35.452,15.954-35.452,35.453
			c0,19.499-15.954,35.452-35.452,35.452c-52.319,0-95.125,42.807-95.125,95.125l0,0c0,52.319,42.806,95.125,95.125,95.125H229.644
			L229.644,444.01z M74.994,146.987c-17.393,0-31.623-14.23-31.623-31.622l0,0c0-17.392,14.23-31.622,31.623-31.622l0,0
			c17.393,0,31.623,14.23,31.623,31.622l0,0C106.617,132.757,92.387,146.987,74.994,146.987L74.994,146.987z"/>
		<g>
			<path style="fill-rule:evenodd;clip-rule:evenodd;fill:#B1C0E2;" d="M561.215,258.645c-1.093-2.8-2.315-5.537-3.662-8.201
				h-84.496c-0.725,0-1.002,0.594-0.615,1.318l2.969,5.564c0.387,0.726,1.295,1.318,2.021,1.318H561.215z"/>
			<path style="fill-rule:evenodd;clip-rule:evenodd;fill:#B1C0E2;" d="M564.727,269.629c-0.705-2.784-1.534-5.521-2.481-8.202
				h-89.19c-0.725,0-1.002,0.594-0.615,1.318l2.969,5.565c0.387,0.726,1.295,1.318,2.021,1.318H564.727z"/>
			<path style="fill-rule:evenodd;clip-rule:evenodd;fill:#B1C0E2;" d="M566.81,280.613c-0.354-2.773-0.835-5.508-1.427-8.202
				h-92.326c-0.725,0-1.002,0.593-0.615,1.318l2.969,5.566c0.387,0.725,1.295,1.317,2.021,1.317H566.81z"/>
			<path style="fill-rule:evenodd;clip-rule:evenodd;fill:#B1C0E2;" d="M567.55,291.598c-0.026-2.764-0.17-5.499-0.432-8.202
				h-94.062c-0.725,0-1.002,0.593-0.615,1.317l2.969,5.566c0.387,0.726,1.295,1.318,2.021,1.318H567.55z"/>
			<path style="fill-rule:evenodd;clip-rule:evenodd;fill:#B1C0E2;" d="M568.114,302.582c-0.294-2.703-0.472-5.438-0.529-8.202
				h-94.528c-0.725,0-1.002,0.593-0.615,1.318l2.969,5.565c0.387,0.725,1.295,1.318,2.021,1.318H568.114z"/>
			<path style="fill-rule:evenodd;clip-rule:evenodd;fill:#B1C0E2;" d="M488.22,253.444c0-0.458-0.372-0.83-0.83-0.83
				c-0.459,0-0.831,0.372-0.831,0.83v71.763c0,0.458,0.372,0.83,0.831,0.83c0.458,0,0.83-0.372,0.83-0.83V253.444z"/>
			<path style="fill-rule:evenodd;clip-rule:evenodd;fill:#B1C0E2;" d="M484.068,344.393c0,1.834,1.487,3.321,3.321,3.321
				c1.834,0,3.32-1.487,3.32-3.321v-19.186c0-1.834-1.486-3.321-3.32-3.321c-1.834,0-3.321,1.487-3.321,3.321V344.393z"/>
		</g>
		<g>
			<path style="fill-rule:evenodd;clip-rule:evenodd;fill:#B1C0E2;" d="M321.725,97.137H214.783c-0.752,0-1.039,0.615-0.637,1.367
				l3.079,5.773c0.401,0.752,1.343,1.367,2.096,1.367h106.942c0.752,0,1.039-0.615,0.638-1.367l-3.08-5.773
				C323.42,97.752,322.478,97.137,321.725,97.137z"/>
			<path style="fill-rule:evenodd;clip-rule:evenodd;fill:#B1C0E2;" d="M321.725,108.529H214.783c-0.752,0-1.039,0.615-0.637,1.367
				l3.079,5.773c0.401,0.752,1.343,1.368,2.096,1.368h106.942c0.752,0,1.039-0.616,0.638-1.368l-3.08-5.773
				C323.42,109.144,322.478,108.529,321.725,108.529z"/>
			<path style="fill-rule:evenodd;clip-rule:evenodd;fill:#B1C0E2;" d="M230.511,100.249c0-0.476-0.386-0.861-0.861-0.861
				c-0.476,0-0.861,0.386-0.861,0.861v74.433c0,0.475,0.385,0.861,0.861,0.861c0.475,0,0.861-0.386,0.861-0.861V100.249z"/>
			<path style="fill-rule:evenodd;clip-rule:evenodd;fill:#B1C0E2;" d="M226.206,194.581c0,1.902,1.542,3.445,3.444,3.445
				c1.902,0,3.444-1.543,3.444-3.445v-19.899c0-1.903-1.542-3.445-3.444-3.445c-1.902,0-3.444,1.542-3.444,3.445V194.581z"/>
		</g>
		<g>
			<path style="fill-rule:evenodd;clip-rule:evenodd;fill:#B1C0E2;" d="M139.536,252.77c-2.664,0.646-5.441,0.989-8.296,0.989
				c-12.485,0-24.425,2.443-35.374,6.864h48.005c0.694,0,1.564-0.567,1.935-1.261l2.844-5.33c0.369-0.694,0.104-1.263-0.59-1.263
				H139.536z"/>
			<path style="fill-rule:evenodd;clip-rule:evenodd;fill:#B1C0E2;" d="M89.869,263.289c-4.647,2.264-9.084,4.896-13.276,7.855
				h67.278c0.694,0,1.564-0.567,1.935-1.262l2.844-5.331c0.369-0.694,0.104-1.263-0.59-1.263H89.869z"/>
			<path style="fill-rule:evenodd;clip-rule:evenodd;fill:#B1C0E2;" d="M73.002,273.81c-3.127,2.435-6.103,5.057-8.904,7.854h79.773
				c0.694,0,1.564-0.568,1.935-1.263l2.844-5.33c0.369-0.693,0.104-1.262-0.59-1.262H73.002z"/>
			<path style="fill-rule:evenodd;clip-rule:evenodd;fill:#B1C0E2;" d="M61.539,284.328c-2.318,2.499-4.506,5.119-6.549,7.855
				h88.882c0.694,0,1.564-0.568,1.935-1.263l2.844-5.33c0.369-0.694,0.104-1.263-0.59-1.263H61.539z"/>
			<path style="fill-rule:evenodd;clip-rule:evenodd;fill:#B1C0E2;" d="M53.076,294.848c-1.759,2.533-3.398,5.153-4.911,7.854
				h95.707c0.694,0,1.564-0.567,1.935-1.263l2.844-5.33c0.369-0.693,0.104-1.262-0.59-1.262H53.076z"/>
			<path style="fill-rule:evenodd;clip-rule:evenodd;fill:#B1C0E2;" d="M133.539,256.699c0-1.021,0.356-1.85,0.795-1.85
				c0.439,0,0.795,0.828,0.795,1.85V416.49c0,1.021-0.355,1.85-0.795,1.85c-0.439,0-0.795-0.829-0.795-1.85V256.699z"/>
			<path style="fill-rule:evenodd;clip-rule:evenodd;fill:#B1C0E2;" d="M137.515,436.713c0,1.757-1.424,3.18-3.181,3.18
				c-1.756,0-3.18-1.423-3.18-3.18V418.34c0-1.757,1.424-3.181,3.18-3.181c1.757,0,3.181,1.424,3.181,3.181V436.713z"/>
			<path style="fill-rule:evenodd;clip-rule:evenodd;fill:#B1C0E2;" d="M49.319,305.367h98.741c0.694,0,0.959,0.567,0.59,1.263
				l-2.844,5.33c-0.37,0.693-1.24,1.261-1.935,1.261H45.13c-0.694,0-0.959-0.567-0.588-1.261l2.842-5.33
				C47.754,305.935,48.625,305.367,49.319,305.367z"/>
			<path style="fill-rule:evenodd;clip-rule:evenodd;fill:#B1C0E2;" d="M49.319,315.886h98.741c0.694,0,0.959,0.568,0.59,1.262
				l-2.844,5.331c-0.37,0.694-1.24,1.263-1.935,1.263H45.13c-0.694,0-0.959-0.568-0.588-1.263l2.842-5.331
				C47.754,316.454,48.625,315.886,49.319,315.886z"/>
			<path style="fill-rule:evenodd;clip-rule:evenodd;fill:#B1C0E2;" d="M49.319,326.405h98.741c0.694,0,0.959,0.568,0.59,1.262
				l-2.844,5.33c-0.37,0.695-1.24,1.263-1.935,1.263H45.13c-0.694,0-0.959-0.567-0.588-1.263l2.842-5.33
				C47.754,326.974,48.625,326.405,49.319,326.405z"/>
			<path style="fill-rule:evenodd;clip-rule:evenodd;fill:#B1C0E2;" d="M49.319,336.925h98.741c0.694,0,0.959,0.567,0.59,1.262
				l-2.844,5.331c-0.37,0.694-1.24,1.262-1.935,1.262H45.13c-0.694,0-0.959-0.567-0.588-1.262l2.842-5.331
				C47.754,337.492,48.625,336.925,49.319,336.925z"/>
			<path style="fill-rule:evenodd;clip-rule:evenodd;fill:#B1C0E2;" d="M49.319,347.443h98.741c0.694,0,0.959,0.568,0.59,1.263
				l-2.844,5.33c-0.37,0.694-1.24,1.262-1.935,1.262H45.13c-0.694,0-0.959-0.567-0.588-1.262l2.842-5.33
				C47.754,348.012,48.625,347.443,49.319,347.443z"/>
			<path style="fill-rule:evenodd;clip-rule:evenodd;fill:#B1C0E2;" d="M49.319,357.963h98.741c0.694,0,0.959,0.568,0.59,1.263
				l-2.844,5.33c-0.37,0.693-1.24,1.262-1.935,1.262H45.13c-0.694,0-0.959-0.568-0.588-1.262l2.842-5.33
				C47.754,358.531,48.625,357.963,49.319,357.963z"/>
			<path style="fill-rule:evenodd;clip-rule:evenodd;fill:#B1C0E2;" d="M49.319,368.481h98.741c0.694,0,0.959,0.568,0.59,1.263
				l-2.844,5.33c-0.37,0.695-1.24,1.263-1.935,1.263H45.13c-0.694,0-0.959-0.567-0.588-1.263l2.842-5.33
				C47.754,369.05,48.625,368.481,49.319,368.481z"/>
			<path style="fill-rule:evenodd;clip-rule:evenodd;fill:#B1C0E2;" d="M49.319,379.002h98.741c0.694,0,0.959,0.567,0.59,1.262
				l-2.844,5.33c-0.37,0.694-1.24,1.262-1.935,1.262H45.13c-0.694,0-0.959-0.567-0.588-1.262l2.842-5.33
				C47.754,379.569,48.625,379.002,49.319,379.002z"/>
		</g>
		<path style="fill-rule:evenodd;clip-rule:evenodd;fill:#BFCCE8;" d="M166.912,134.664c-0.864,2.433-2.639,4.312-4.809,5.668
			c-1.033,0.646-2.356,1.292-3.537,1.627c-0.553,0.16-1.135-0.161-1.295-0.714c-0.037-0.128-0.05-0.263-0.037-0.395
			c0.109-1.071,0.108-2.154-0.033-3.222c-0.078-0.596-0.2-1.186-0.368-1.763c-4.736-0.637-9.079-2.937-12.285-6.485
			c-3.369-3.727-5.216-8.527-5.216-13.552c0-5.38,2.118-10.494,5.922-14.298c3.804-3.804,8.917-5.922,14.297-5.922
			c5.38,0,10.494,2.119,14.298,5.922c3.804,3.804,5.923,8.917,5.923,14.298c0,4.163-1.266,8.191-3.658,11.599
			C173.828,130.687,170.621,133.213,166.912,134.664z"/>
		<path style="fill-rule:evenodd;clip-rule:evenodd;fill:#9EB1D9;" d="M527.249,345.982h34.73c0.787,0,1.514,0.282,2.08,0.752
			c0.156,0.064,0.297,0.17,0.405,0.313c0.063,0.082,0.109,0.171,0.144,0.263c0.408,0.546,0.651,1.224,0.651,1.954v20.411
			c0,0.901-0.368,1.721-0.963,2.315v0.004c-0.595,0.594-1.415,0.962-2.317,0.962h-34.73c-0.903,0-1.725-0.368-2.317-0.962
			c-0.595-0.595-0.964-1.416-0.964-2.319v-20.411c0-0.734,0.243-1.414,0.653-1.962c0.034-0.089,0.081-0.176,0.142-0.255
			c0.109-0.143,0.249-0.248,0.404-0.313C525.734,346.265,526.461,345.982,527.249,345.982z"/>
		<g>
			<path style="fill-rule:evenodd;clip-rule:evenodd;fill:#01020E;" d="M258.002,305.948c7.822,4.214,12.155,9.199,17.487,16.415
				c11.868,16.067,16.506,28.376,30.018,42.876c4.981,5.345,29.515-36.657,32.353-42.182c0.554-1.078,2.939-6.274,4.972-4.638
				c0.951,0.764,4.258,4.119,6.369,5.194c2.11,1.074,4.68,0.519,5.177,3.643c-5.568,20.723-30.353,86.858-59.781,65.091
				c-20.875-15.441-36.442-39.179-39.105-42.624c-9.661-12.499-3.369-25.023-7.685-33.916l-0.017-0.03l-0.283-0.6l-0.097-0.204
				l-0.178-0.386l-0.003-0.01l-0.164-0.36l-0.094-0.211l-0.065-0.147l0,0c-1.825-4.149-1.933-5.802-1.933-5.802l4.06,4.512
				L258.002,305.948z"/>
			<path style="fill-rule:evenodd;clip-rule:evenodd;fill:#E2E1E7;" d="M175.08,322.479l13.682-17.296l3.025-2.596l30.39-11.429
				l14.064,2.191h-0.001c0,0,14.029,6.828,15.215,6.767c0.129-0.008,0.332-0.087,0.591-0.226l8.295,23.862
				c0,0,5.036,34.572,5.75,36.925c0.714,2.353,1.324,35.513-1.292,40.274c-2.615,4.761-0.395,12.141-10.463,15.239
				c-10.068,3.098-31.592,9.09-46.047-6.188c-14.454-15.277-17.462-23.758-21.075-28.923
				C183.599,375.919,175.08,322.479,175.08,322.479z"/>
			<path style="fill-rule:evenodd;clip-rule:evenodd;fill:#E74D91;" d="M232.508,312.877l0.843,1.465
				c0,0,12.046,36.436,11.547,65.636c-0.499,29.2-15.222,4.242-14.973,1.746c0.248-2.494,2.859-50.035,0.306-67.194
				C230.231,314.529,230.423,312.22,232.508,312.877z"/>
			<path style="fill-rule:evenodd;clip-rule:evenodd;fill:#01020E;" d="M239.178,294.99c0,0,11.681,27.89,7.277,59.836
				c-4.401,31.945-13.698,56.402-13.698,56.402l-2.242,28.003h40.374c0.276-11.304,0.688-20.818,1.264-27.251
				C275.333,376.544,285.123,301.177,239.178,294.99z"/>
			<path style="fill-rule:evenodd;clip-rule:evenodd;fill:#0E1632;" d="M239.178,294.99c0,0,11.681,27.89,7.277,59.836
				c-1.602,11.624-3.851,22.255-6.065,31.078v0.001l1.053,4.931c8.684-20.392,22.106-71.9,21.777-72.064
				c-0.33-0.165-8.268-0.781-8.268-0.781c1.892-1.852,4.236-2.798,3.743-3.703c-0.444-0.814-11.671-15.243-13.91-18.116
				C243.014,295.658,241.152,295.256,239.178,294.99z"/>
			<path style="fill-rule:evenodd;clip-rule:evenodd;fill:#01020E;" d="M244.675,439.231c-0.401-7.385-0.773-12.722-0.983-15.132
				c-4.514-51.773-2.255-86.432-37.039-127.356c-8.136,1.561-22.79,9.205-22.79,9.205c-6.448,3.367-12.592,8.772-13.663,16.23
				c-1.517,10.585,9.999,47.251,17.084,70.225c3.052,9.897,3.432,26.852,2.431,46.828H244.675z"/>
			<path style="fill-rule:evenodd;clip-rule:evenodd;fill:#E8685B;" d="M211.003,262.468l0.354,8.298c0,0,0,17.002,0,19.583
				c0,1.248-1.164,3.048-3.216,4.614c3.06,3.321,10.606,11.034,15.34,11.767c6.053,0.935,13.041-1.749,14.787-3.246
				c1.22-1.047,1.338-6.466,2.055-9.497c-0.565-0.155,0.079,0.008-0.491-0.179c-1.477-0.486-2.878-1.186-3.785-2.176
				c-2.838-3.099-2.708-16.911,0.13-20.523C239.019,267.495,211.003,262.468,211.003,262.468z"/>
			<path style="fill-rule:evenodd;clip-rule:evenodd;fill:#E2E1E7;" d="M233.688,302.924l-3.425-1.848c0,0-0.289,3.781-0.694,3.907
				c-0.405,0.125-0.95-2.377-2.429-3.28c-1.479-0.904-5.435,4.495-5.435,4.495s1.471,4.212,3.591,4.523
				c2.122,0.313,8.509,1.02,8.591-0.893C233.969,307.915,233.688,302.924,233.688,302.924z"/>
			<path style="fill-rule:evenodd;clip-rule:evenodd;fill:#E74D91;" d="M229.286,307.481c0,0-3.027-0.217-5.554-1.841
				c-2.526-1.622-4.398,0.406-4.398,0.406l2.434,2.762l0.187,1.169c0,0,3.632-0.64,5.935,1.037
				C230.19,312.69,229.286,307.481,229.286,307.481z"/>
			<path style="fill-rule:evenodd;clip-rule:evenodd;fill:#333333;" d="M209.686,290.996c0,0,4.303,7.737,15.723,9.734
				c1.563,0.329,4.518,3.191,2.434,2.808c-2.085-0.386-6.739,8.548-7.362,11.917c-0.624,3.368-14.359-14.16-15.229-19.651
				C205.251,295.804,207.502,291.62,209.686,290.996z"/>
			<path style="fill-rule:evenodd;clip-rule:evenodd;fill:#E74D91;" d="M234.068,307.694c0,0-1.309-1.028-2.371-1.028
				c-1.062,0-2.995,0-3.806,0.717c-0.812,0.718-1.773,2.374-1.84,2.904c-0.068,0.529,3.182,3.742,4.18,4.242
				c0.998,0.5,2.059-0.311,3.12-0.188C234.411,314.466,234.723,308.809,234.068,307.694z"/>
			<path style="fill-rule:evenodd;clip-rule:evenodd;fill:#333333;" d="M235.499,290.836c0,0,0.915,6.829-4.496,9.272
				c0,0-1.483,0.75-0.274,2.104c1.209,1.353,2.999,6.684,3.54,9.08c0.539,2.395,7.224-9.739,6.754-17.197
				C241.023,294.095,237.323,291.325,235.499,290.836z"/>
			<path style="fill-rule:evenodd;clip-rule:evenodd;fill:#01020E;" d="M183.864,305.948c-7.822,4.214-12.154,9.199-17.487,16.415
				c-11.867,16.067-16.506,28.376-30.017,42.876c-4.981,5.345-29.515-36.657-32.353-42.182c-0.555-1.078-2.941-6.274-4.973-4.638
				c-0.951,0.764-4.258,4.119-6.368,5.194c-2.111,1.074-4.68,0.519-5.177,3.643c5.567,20.723,30.353,86.858,59.779,65.091
				c20.876-15.441,36.443-39.179,39.106-42.624c9.661-12.499,3.369-25.023,7.685-33.916l0.016-0.03l0.282-0.6l0.097-0.204
				l0.18-0.386l0.002-0.01l0.164-0.36l0.093-0.211l0.066-0.147h-0.001c1.827-4.149,1.933-5.802,1.933-5.802l-4.06,4.512
				L183.864,305.948z"/>
			<path style="fill-rule:evenodd;clip-rule:evenodd;fill:#0076BD;" d="M259.558,249.797c0,0.869,0.704,1.573,1.573,1.573
				c0.868,0,1.572-0.705,1.572-1.573v-42.629c0-4.869-1.729-11.471-7.548-16.27c-4.104-3.385-10.23-5.847-19.197-6.089
				c-10.43-0.282-21.679,0.517-30.377,4.121c-9.036,3.745-15.337,10.426-15.337,21.854v36.242c0,0.868,0.705,1.572,1.573,1.572
				c0.868,0,1.572-0.705,1.572-1.572v-36.242c0-9.883,5.505-15.684,13.396-18.954c8.228-3.41,19.035-4.16,29.1-3.888
				c8.168,0.221,13.663,2.394,17.28,5.377c4.929,4.065,6.394,9.694,6.394,13.851V249.797z"/>
			<path style="fill-rule:evenodd;clip-rule:evenodd;fill:#3A405C;" d="M269.756,254.491h-1.266c-1.738,0-3.159,1.421-3.159,3.159
				l0,0c0,1.738,1.421,3.159,3.159,3.159h1.266c1.737,0,3.159-1.421,3.159-3.159l0,0
				C272.915,255.912,271.493,254.491,269.756,254.491z"/>
			<path style="fill-rule:evenodd;clip-rule:evenodd;fill:#0076BD;" d="M256.564,270.232c6.92,0,12.582-5.661,12.582-12.582l0,0
				c0-6.92-5.662-12.583-12.582-12.583V270.232z"/>
			<path style="fill-rule:evenodd;clip-rule:evenodd;fill:#0E1632;" d="M256.564,242.324L256.564,242.324
				c-1.235,0-2.244,1.009-2.244,2.243v26.168c0,1.232,1.009,2.243,2.243,2.243h0.001c1.234,0,2.243-1.011,2.243-2.243v-26.168
				C258.807,243.333,257.798,242.324,256.564,242.324z"/>
			<path style="fill-rule:evenodd;clip-rule:evenodd;fill:#F4AD85;" d="M229.225,202.018L229.225,202.018
				c-16.712-0.687-30.948,12.424-31.633,29.137l-1.134,27.614c-0.687,16.713,12.425,30.948,29.137,31.634l0,0
				c16.712,0.687,30.947-12.424,31.634-29.138l1.134-27.614C259.048,216.939,245.937,202.705,229.225,202.018z"/>
			<path style="fill-rule:evenodd;clip-rule:evenodd;fill:#ED9072;" d="M224.936,202.148c-14.793,1.491-26.718,13.746-27.344,29.007
				l-1.134,27.614c-0.687,16.713,12.425,30.948,29.137,31.635l0,0c1.157,0.047,2.301,0.025,3.431-0.055
				c-21.38-0.235-22.172-24.795-22.172-35.157c0-10.364,12.339-22.209,17.686-22.456c5.348-0.247,14.626,6.615,14.626,6.615
				s10.711-13.607,10.547-12.619C247.365,224.384,235.145,210.563,224.936,202.148z"/>
			<path style="fill-rule:evenodd;clip-rule:evenodd;fill:#333333;" d="M221.049,264.334c-0.22,5.337,3.929,9.842,9.267,10.061
				c5.337,0.219,9.843-3.931,10.062-9.268l-0.017-0.001c0.038-0.918-0.682-1.7-1.601-1.737l-15.959-0.656
				c-0.918-0.037-1.699,0.683-1.737,1.601H221.049z"/>
			<path style="fill-rule:evenodd;clip-rule:evenodd;fill:#0E1632;" d="M195.283,212.102c0,0-14.27,4.248-2.19,33.566
				c2.967,0.122,3.806,2.401,3.727,4.299l-0.156,3.784c4.65-1.855,4.071-6.797,3.474-9.196c0,0,17.122-3.496,20.16-22.211
				c0,0,0.125-1.357,1.824-0.264c1.46,0.939,15.888,19.831,29.243,24.992c12.197,4.712,24.339-10.775,22.031-24.141
				C265.671,178.195,196.554,181.11,195.283,212.102z"/>
			<path style="fill-rule:evenodd;clip-rule:evenodd;fill:#010518;" d="M195.283,212.102c0,0-14.27,4.248-2.19,33.566
				c2.967,0.122,3.806,2.401,3.727,4.299l-0.156,3.784c4.65-1.855,4.071-6.797,3.474-9.196c0,0,17.122-3.496,20.16-22.211
				c0,0,0.125-1.357,1.824-0.264c1.46,0.939,15.888,19.831,29.243,24.992c11.312,4.371,22.573-8.632,22.309-21.203
				c-0.044,0.734-1.256,17.836-18.432,12.058c-17.552-5.904-29.983-21.196-37.92-18.237c-7.927,2.955-26.199,4.323-20.194-15.121
				C196.045,206.853,195.395,209.365,195.283,212.102z"/>
			<path style="fill-rule:evenodd;clip-rule:evenodd;fill:#0076BD;" d="M190.244,210.92v36.104c0,0.868,0.705,1.572,1.573,1.572
				c0.868,0,1.572-0.705,1.572-1.572V210.92H190.244z"/>
			<path style="fill-rule:evenodd;clip-rule:evenodd;fill:#3A405C;" d="M183.433,254.491h1.266c1.737,0,3.158,1.421,3.158,3.159l0,0
				c0,1.738-1.421,3.159-3.158,3.159h-1.266c-1.737,0-3.159-1.421-3.159-3.159l0,0C180.273,255.912,181.695,254.491,183.433,254.491
				z"/>
			<path style="fill-rule:evenodd;clip-rule:evenodd;fill:#0076BD;" d="M196.624,270.232c-6.921,0-12.583-5.661-12.583-12.582l0,0
				c0-6.92,5.662-12.583,12.583-12.583V270.232z"/>
			<path style="fill-rule:evenodd;clip-rule:evenodd;fill:#0E1632;" d="M196.624,242.324L196.624,242.324
				c1.234,0,2.244,1.009,2.244,2.243v26.168c0,1.232-1.01,2.243-2.244,2.243l0,0c-1.234,0-2.244-1.011-2.244-2.243v-26.168
				C194.381,243.333,195.391,242.324,196.624,242.324z"/>
			<path style="fill-rule:evenodd;clip-rule:evenodd;fill:#0E1632;" d="M242.202,405.043c-3.052-41.676-5.21-72.604-35.55-108.3
				c-2.104,0.403-4.643,1.214-7.252,2.193c0.778,3.778,3.376,16.5,3.587,18.806c0,0,0.184,0.412,0.76,0.555
				c0.577,0.143,8.452-1.172,8.452-1.172s-9.439,6.211-9.871,6.602c-0.431,0.391,39.518,81.582,39.518,81.582L242.202,405.043z"/>
			<g>
				<path style="fill-rule:evenodd;clip-rule:evenodd;fill:#F4AD85;" d="M104.165,316.161c0.77-4.047,4.586-13.043,5.506-13.997
					c1.212-1.26-5.184-5.107-7.451,0.967c0,0-2.995,4.032-4.157,3.358c-1.164-0.673-3.427-16.26-3.621-18.206
					c-0.196-1.946-2.851-2.096-3.454-1.547c-0.604,0.549-0.048,3.049,0.112,6.64c0.158,3.593,0.294,5.819-0.01,6.175
					c-0.861,1.005-5.156-12.213-6.685-13.07c-0.962-0.54-4.006,0.763-3.845,2.582c0.161,1.821,4.921,12.596,5.093,14.169
					c0.172,1.574-0.756,0.709-1.458-0.148c-0.701-0.857-7.117-11.574-7.997-12.11c-0.881-0.537-3.69,1.086-3.037,2.93
					c0.653,1.844,6.734,12.599,6.69,13.502c-0.044,0.904-0.675,0.799-2.669-0.614c-1.993-1.413-5.943-4.334-7.08-4.052
					c-0.74-0.035-1.712,2.226,0.055,4.039c1.768,1.814,5.995,6.466,6.537,7.233c2.852,4.053,4.306,8.511,6.964,11.365
					c0.961,1.033,2.217,1.816,3.629,2.344C95.947,330.959,102.577,324.514,104.165,316.161z"/>
				<path style="fill-rule:evenodd;clip-rule:evenodd;fill:#ED9072;" d="M83.058,324.682c0.193,0.24,0.393,0.473,0.6,0.694
					c0.882,0.948,2.014,1.688,3.285,2.209c0.114,0.047,0.228,0.091,0.344,0.135c5.689,2.128,10.502,0.076,13.585-3.949
					c1.61-2.103,2.749-4.744,3.293-7.609c0.019-0.097,0.038-0.195,0.06-0.297C100.442,324.159,91.682,327.376,83.058,324.682z"/>
			</g>
		</g>
		<g>
			<g>
				<path style="fill-rule:evenodd;clip-rule:evenodd;fill:#E68392;" d="M345.737,255.695c0,0,4.312-1.39,5.406-5.981
					c1.094-4.591,10.606-2.23,10.936-0.875c0.331,1.354,1.38,3.174,1.102,5.593c-0.279,2.421,0.962,3.175,0.962,3.175
					c-6.642,3.995-7.531,0.137-14.766,5.804C347.029,265.253,346.216,258.644,345.737,255.695z"/>
				<path style="fill-rule:evenodd;clip-rule:evenodd;fill:#0E1632;" d="M380.778,298.532l-4.933-7.173
					c0,0-30.658,10.064-46.368,4.482c-15.71-5.581,20.125-30.091,22.651-32.871c2.528-2.78-2.266-4.349-3.535-6.443
					c-1.269-2.095-1.577-4.75-3.062-4.418c-1.484,0.332-38.658,25.908-40.102,49.393c-1.444,23.485,57.872,26.768,63.676,23.686
					C374.911,322.104,380.778,298.532,380.778,298.532z"/>
				<path style="fill-rule:evenodd;clip-rule:evenodd;fill:#01020E;" d="M380.778,298.532l-4.933-7.173
					c0,0-6.975,2.288-15.975,4.077c-2.971,6.059-7.89,13.411-15.187,16.52c-13.41,5.713-34.36,2.424-39.254-10.453
					c-1.444,23.485,57.872,26.768,63.676,23.686C374.911,322.104,380.778,298.532,380.778,298.532L380.778,298.532z
					 M325.515,291.436h-0.003c-1.275-7.904,14.447-20.592,16.293-27.086c0.954-3.351-0.355-6.375-1.846-8.519
					c3.112-2.302,5.239-3.646,5.572-3.722c1.485-0.332,1.793,2.323,3.062,4.418c1.269,2.095,6.063,3.663,3.535,6.443
					C350.04,265.268,325.206,282.405,325.515,291.436z"/>
				<path style="fill-rule:evenodd;clip-rule:evenodd;fill:#F2F0F0;" d="M344.92,250.996c0,0-2.522,1.49-3.261,2.176
					c-0.738,0.684,1.117,4.636,2.985,7.983c1.868,3.348,3.869,5.064,4.453,5.239c0.585,0.178,2.244-1.335,2.244-1.335
					L344.92,250.996z"/>
				<g>
					<path style="fill-rule:evenodd;clip-rule:evenodd;fill:#0E1632;" d="M374.949,213.303c-1.063,0.421-31.26,26.175-33.068,27.618
						c-1.809,1.442-1.439,2.744,0.693,6.669c2.131,3.924,6.549,11.861,7.587,14.225c0.807,1.841,2.713,3.794,4.269,3.846
						c0.446,0.015,3.539,0.546,3.893,0.203c1.597-1.539,28.773-26.796,29.27-27.477c0.496-0.68,1.721-2.616-0.631-6.452
						c-2.243-3.654-3.127-5.846-8.68-16.208c-0.294-0.548,1.88-1.966,1.248-2.268C378.295,212.868,375.829,212.954,374.949,213.303z
						"/>
					<path style="fill-rule:evenodd;clip-rule:evenodd;fill:#01020E;" d="M378.473,213.532
						c-1.063,0.422-31.259,26.176-33.067,27.618c-1.809,1.442-1.439,2.745,0.692,6.668c2.131,3.923,6.549,11.863,7.588,14.226
						c1.038,2.365,3.888,4.917,5.485,3.378c1.597-1.539,31.448-26.125,31.945-26.806c0.497-0.681,1.722-2.617-0.631-6.452
						c-2.24-3.655-3.124-5.847-8.678-16.209C381.151,214.733,380.068,212.898,378.473,213.532z"/>
					<path style="fill-rule:evenodd;clip-rule:evenodd;fill:#01020E;" d="M359.484,265.14c3.551-3.125,31.153-25.87,31.631-26.523
						c0.497-0.681,1.722-2.617-0.631-6.452c-2.24-3.655-3.126-5.847-8.678-16.209c-0.259-0.481-0.585-1.059-0.98-1.541
						c-5.597,4.417-30.342,25.51-31.974,26.813c-1.81,1.443-1.438,2.745,0.693,6.669c2.131,3.924,6.549,11.861,7.587,14.227
						C357.621,263.234,358.512,264.389,359.484,265.14z"/>
					<path style="fill-rule:evenodd;clip-rule:evenodd;fill:#0E1632;" d="M354.493,250.818c-0.501-0.947-1.666-1.15-2.601-0.452
						c-0.935,0.697-1.286,2.032-0.783,2.979c0.5,0.946,1.665,1.15,2.601,0.452C354.645,253.1,354.995,251.766,354.493,250.818z"/>
					<path style="fill-rule:evenodd;clip-rule:evenodd;fill:#0E1632;" d="M386.079,231.685c-0.068-0.081-2.467-4.675-2.57-4.864
						c-0.104-0.19-0.054-0.266,0.167-0.444c0.222-0.179,0.68-0.535,0.794-0.655c0.116-0.119,0.365-0.166,0.452,0.02
						c0.086,0.186,2.481,4.682,2.505,4.754c0.024,0.072,0.077,0.268-0.158,0.431c-0.225,0.155-0.328,0.268-0.908,0.744
						C386.292,231.727,386.182,231.806,386.079,231.685z"/>
					<path style="fill-rule:evenodd;clip-rule:evenodd;fill:#0E1632;" d="M382.875,225.634c-0.067-0.08-0.604-1.156-0.706-1.345
						c-0.104-0.189-0.055-0.265,0.167-0.443c0.221-0.179,0.679-0.536,0.794-0.655c0.117-0.12,0.365-0.167,0.452,0.019
						c0.089,0.186,0.618,1.162,0.642,1.235c0.022,0.072,0.075,0.268-0.16,0.43c-0.225,0.155-0.326,0.27-0.907,0.745
						C383.088,225.677,382.978,225.757,382.875,225.634z"/>
					<path style="fill-rule:evenodd;clip-rule:evenodd;fill:#3A405C;" d="M376.281,219.72c-0.82,0.328-22.615,18.898-24.013,20.013
						c-1.397,1.114-1.112,2.122,0.535,5.154c1.647,3.031,5.061,9.165,5.863,10.992c0.803,1.827,3.007,3.798,4.24,2.609
						c1.234-1.19,22.76-18.857,23.143-19.384c0.385-0.526,1.331-2.021-0.486-4.986c-1.732-2.824-2.415-4.519-6.706-12.525
						C378.351,220.649,377.513,219.232,376.281,219.72z"/>
					<path style="fill-rule:evenodd;clip-rule:evenodd;fill:#333333;" d="M353.618,242.945c0.009,0.041-0.016,0.083-0.057,0.092
						c-0.04,0.01-0.08-0.015-0.09-0.055c-0.096-0.387,0.013-0.669,0.186-0.826c0.108-0.097,0.242-0.145,0.37-0.138
						c0.132,0.008,0.256,0.072,0.337,0.2c0.113,0.175,0.142,0.472-0.016,0.903c0.194-0.105,0.389-0.167,0.659-0.023
						c0.339,0.18,0.358,0.455,0.223,0.71c-0.097,0.183-0.277,0.354-0.47,0.463c-0.199,0.113-0.416,0.164-0.572,0.098
						c-0.207-0.085-0.307-0.357-0.126-0.922c-0.144,0.063-0.309,0.106-0.518,0.081c-0.04-0.003-0.071-0.043-0.065-0.083
						c0.004-0.042,0.042-0.072,0.083-0.067c0.236,0.027,0.416-0.051,0.575-0.137l0.029-0.072c0.181-0.435,0.168-0.717,0.069-0.868
						c-0.052-0.082-0.132-0.125-0.217-0.131c-0.088-0.005-0.183,0.03-0.262,0.1C353.622,242.391,353.537,242.623,353.618,242.945
						L353.618,242.945z M359.313,253.268c0.018,0.038,0.002,0.083-0.035,0.101c-0.038,0.02-0.083,0.004-0.102-0.034
						c-0.274-0.561-0.179-1.045,0.043-1.344c0.079-0.105,0.173-0.188,0.274-0.244c0.102-0.058,0.213-0.09,0.317-0.088h0.003
						c0.201,0.002,0.386,0.116,0.486,0.366c0.039,0.097,0.085,0.225,0.135,0.36c0.209,0.575,0.483,1.326,0.974,1.704
						c0.026-0.253,0.046-0.407,0.085-0.548v-0.002c0.047-0.174,0.12-0.323,0.254-0.603c0.067-0.142,0.154-0.318,0.265-0.56
						l0.001-0.003c0.024-0.054,0.057-0.093,0.093-0.12c0.064-0.048,0.141-0.056,0.217-0.033c0.067,0.02,0.135,0.062,0.198,0.115
						c0.115,0.1,0.22,0.246,0.277,0.381c0.052,0.123,0.076,0.251,0.079,0.381l-0.001,0.003c0.006,0.316-0.114,0.635-0.261,0.885
						c-0.147,0.252-0.329,0.439-0.432,0.482c-0.021,0.01-0.04,0.015-0.058,0.016h-0.003c-0.219,0.003-0.415-0.045-0.587-0.132
						l-0.045,0.502c-0.013,0.135-0.191,0.267-0.413,0.313c-0.086,0.018-0.178,0.025-0.269,0.014
						c-0.093-0.011-0.185-0.039-0.269-0.089c-0.211-0.127-0.359-0.393-0.305-0.872c0.014-0.124,0.022-0.235,0.03-0.345
						c0.006-0.111,0.013-0.224,0.028-0.341c0.004-0.042,0.042-0.072,0.084-0.066c0.042,0.004,0.072,0.043,0.066,0.084
						c-0.013,0.118-0.02,0.227-0.027,0.334c-0.007,0.113-0.015,0.227-0.03,0.352c-0.046,0.408,0.068,0.627,0.232,0.726
						c0.063,0.036,0.134,0.059,0.208,0.067c0.075,0.008,0.151,0.003,0.221-0.013c0.157-0.032,0.285-0.107,0.292-0.179l0.053-0.569
						c-0.572-0.384-0.871-1.205-1.099-1.831c-0.046-0.123-0.088-0.238-0.134-0.354c-0.075-0.187-0.207-0.27-0.349-0.271
						c-0.081-0.002-0.163,0.022-0.242,0.066c-0.083,0.047-0.16,0.116-0.225,0.203C359.149,252.341,359.068,252.766,359.313,253.268
						L359.313,253.268z M361.551,254.185c0.167,0.094,0.354,0.148,0.568,0.145l0.006-0.003c0.079-0.033,0.229-0.194,0.36-0.421
						c0.135-0.228,0.245-0.519,0.242-0.804l-0.001-0.003c-0.003-0.11-0.023-0.221-0.068-0.324c-0.048-0.117-0.138-0.241-0.234-0.325
						c-0.048-0.042-0.097-0.073-0.141-0.084c-0.034-0.011-0.063-0.008-0.086,0.008c-0.016,0.013-0.031,0.033-0.045,0.063
						l-0.002,0.004c-0.105,0.23-0.194,0.414-0.266,0.562c-0.13,0.27-0.199,0.415-0.244,0.577l-0.001,0.001
						C361.601,253.727,361.579,253.895,361.551,254.185L361.551,254.185z M361.64,253.58l-0.093,0.051
						C361.587,253.643,361.629,253.62,361.64,253.58L361.64,253.58z M357.462,247.208c0.035-0.021,0.083-0.01,0.104,0.027
						c0.021,0.036,0.009,0.082-0.026,0.104l-0.016,0.01c-0.045,0.027-0.131,0.082-0.233,0.155c0.158,0.232,0.422,0.611,0.645,0.919
						l0.155,0.21l0.276-0.343l0.039-0.052c0.055-0.081,0.075-0.109,0.185-0.082c0.108-0.285,0.215-0.6,0.281-0.85l0.147,0.041
						c-0.072,0.268-0.191,0.616-0.31,0.922l0,0.003l-0.005,0.012l-0.039,0.099c-0.139,0.346-0.279,0.621-0.355,0.649
						c-0.019,0.006-0.036,0.007-0.054,0.003l-0.004-0.001c-0.014-0.004-0.025-0.011-0.033-0.023
						c-0.033-0.026-0.077-0.074-0.129-0.138c-0.268,0.333-0.593,0.735-0.733,0.889c-0.006,0.034-0.033,0.061-0.068,0.064
						c-0.042,0.004-0.079-0.027-0.083-0.068c-0.021-0.25-0.385-0.805-0.632-1.183l-0.176-0.27c-0.088-0.152,0.138-0.402,0.412-0.628
						c0.089-0.075,0.186-0.148,0.274-0.212c-0.048-0.072-0.077-0.12-0.081-0.126c-0.014-0.039,0.006-0.083,0.046-0.097
						c0.039-0.014,0.082,0.005,0.097,0.045c0.001,0.005,0.023,0.038,0.059,0.091c0.105-0.073,0.192-0.131,0.238-0.159
						L357.462,247.208L357.462,247.208z M357.169,247.59c-0.086,0.063-0.177,0.132-0.263,0.204c-0.222,0.183-0.414,0.37-0.377,0.434
						c0.046,0.076,0.104,0.164,0.171,0.266c0.221,0.337,0.533,0.813,0.629,1.122c0.118-0.149,0.406-0.542,0.663-0.863
						c-0.056-0.071-0.117-0.153-0.181-0.241C357.592,248.21,357.333,247.835,357.169,247.59L357.169,247.59z M358.52,248.338
						l-0.037,0.048l-0.298,0.372c0.04,0.053,0.073,0.093,0.092,0.113C358.321,248.811,358.415,248.602,358.52,248.338
						L358.52,248.338z M356.804,246.96c-0.039-0.005-0.07-0.043-0.065-0.085c0.006-0.04,0.044-0.071,0.085-0.066
						c0.12,0.017,0.462-0.001,0.837-0.019c0.636-0.032,1.366-0.067,1.419,0.08l0.001,0.008L356.804,246.96L356.804,246.96z
						 M357.669,246.943l-0.866,0.017C356.938,246.977,357.287,246.96,357.669,246.943L357.669,246.943z M358.935,246.921
						c-0.014-0.041-0.682-0.008-1.266,0.021L358.935,246.921L358.935,246.921z M358.938,246.923l-0.002-0.002L358.938,246.923
						L358.938,246.923z M358.872,247.307c0.051-0.192,0.079-0.336,0.066-0.383L358.872,247.307L358.872,247.307z M354.259,243.345
						c-0.217,0.566-0.167,0.82-0.014,0.883c0.111,0.047,0.279,0.003,0.44-0.09c0.169-0.096,0.328-0.244,0.411-0.401
						c0.095-0.182,0.083-0.376-0.16-0.505c-0.25-0.133-0.429-0.028-0.631,0.088L354.259,243.345z"/>
				</g>
				<path style="fill-rule:evenodd;clip-rule:evenodd;fill:#0E1632;" d="M450.034,297.747
					c-16.729-12.654-31.982-10.736-55.61-13.006c-12.382,0.789-19.848,7.535-24.245,17.621l-0.032,0.076l-0.033,0.077l-0.099,0.232
					l-0.034,0.077l-0.02,0.05l-0.011,0.027l-0.033,0.077l-0.129,0.313l-0.032,0.077l-0.027,0.064l-0.005,0.015l-0.032,0.078
					l-0.031,0.079l-0.094,0.236l-0.031,0.078l-0.007,0.019l-0.055,0.141l-0.031,0.08l-0.122,0.318l-0.031,0.081l-0.004,0.012
					l-0.025,0.067l-0.179,0.484l-0.01,0.025l-0.019,0.055l-0.03,0.082l-0.144,0.407l-0.014,0.04l-0.015,0.041
					c-0.124,0.355-0.244,0.715-0.362,1.076l-0.021,0.068l-0.005,0.015c-0.062,0.194-0.124,0.391-0.186,0.587l-0.009,0.006
					c-7.644,17.824-20.413,25.135-3.717,47.761l0.107,0.146l0,0l0.001,0.001l0,0l0.011,0.267l0.011,0.266
					c1.619,39.117-1.182,55.704-3.204,88.046h83.505c-6.536-24.925-17.008-48.129-15.324-69.167
					C432.389,340.71,458.715,328.713,450.034,297.747z"/>
				<path style="fill-rule:evenodd;clip-rule:evenodd;fill:#01020E;" d="M408.254,285.788l-0.621,5.379
					c0,0,32.795-0.478,32.581,19.231c-0.215,19.713-15.02,29.566-25.271,39.038c-11.228,6.559-54.895-1.188-55.754-3.223
					c0.05,0.13,0.046,0.274,0.002,0.432c1.275,2.628,3.029,5.484,5.357,8.639l0.107,0.146l0,0l0.001,0.001l0,0l0.011,0.267
					l0.011,0.266c0.049,1.183,0.092,2.34,0.133,3.482c0.022,0.002,0.039,0.013,0.04,0.04c24.605-1.492,47.086,3.216,53.141,30.581
					c2.934,13.258-2.824,36.743-9.97,53.942h36.956c-6.536-24.925-17.008-48.129-15.324-69.167
					c2.732-34.133,29.059-46.13,20.378-77.096C436.808,287.742,424.503,286.846,408.254,285.788z"/>
				<path style="fill-rule:evenodd;clip-rule:evenodd;fill:#0E1632;" d="M449.858,297.162c8.747,12.408,35.544,52.606,42.482,37.361
					c10.289-17.16,23.505-32.712,26.985-40.141c0.843-1.798,4.525,3.298,5.656,3.721c1.845,0.692,5.76,0.357,5.135,2.255
					c-4.575,12.388-28.166,56.263-31.295,60.09c-8.628,10.552-21.318,6.139-28.132,0.432c-9.353-7.838-21.285-16.968-31.548-28.612
					L449.858,297.162z"/>
				<path style="fill-rule:evenodd;clip-rule:evenodd;fill:#01020E;" d="M447.399,295.043c3.107,4.409,5.68,7.735,9.2,12.642
					c-3.529,6.93-2.76,32.296,5.925,40.991c29.333,29.367,44.766-8.563,56.77-34.934c4.438-9.748,0.454-12.295-1.932-15.124
					c0.172-0.363,2.102-4.531,2.577-4.759c3.625-1.733,13.348,4.018,12.147,6.157c-4.576,12.387-30.608,59.214-33.74,63.041
					c-4.854,5.938-12.069,8.746-21.904,2.839c-15.324-9.205-33.439-29.249-37.3-33.63L447.399,295.043z"/>
				<g>
					<path style="fill-rule:evenodd;clip-rule:evenodd;fill:#E37B64;" d="M416.629,254.27l-1.365,7.712c0,0-2.117,15.887-2.44,18.3
						c-0.321,2.412,1.418,6.936,8.388,8.199c5.694,1.03-14.365,8.338-25.961,5.428c-11.997-3.01-14.375-13.113-9.673-13.529
						c1.462-0.131,3.044-1.162,4.015-1.974c3.037-2.541,4.637-15.466,2.434-19.195C389.823,255.48,416.629,254.27,416.629,254.27z"
						/>
					<path style="fill-rule:evenodd;clip-rule:evenodd;fill:#333333;" d="M376.023,213.907c1.549-17.59,12.582-38.037,35.258-39.732
						c22.675-1.696,45.987,10.328,49.7,39.458c2.437,19.116-1.775,41.541-3.757,60.024l0,0c-3.301,17.777,2.413,28.005-1.26,33.191
						c-6.148-10.916-16.751-12.163-16.751-12.163v0.003c-3.47-0.544-6.75,1.025-9.123,5.771
						c-27.574,55.172-77.961,40.935-65.271-5.56c5.965-21.85,5.036-12.872,8.624-53.626
						C374.119,233.609,375.048,224.99,376.023,213.907z"/>
					<path style="fill-rule:evenodd;clip-rule:evenodd;fill:#E6E4EB;" d="M379.802,221.554c0,0,0.138-1.031,0.339-2.537
						c0.096-0.717,0.206-1.542,0.32-2.415c0.213-1.597,0.447-3.354,0.654-4.908c0.558-4.186,6.566-16.818,21.814-19.373
						c15.249-2.556,30.242,11.565,35.522,23.573c5.28,12.007,3.789,19.508,4.884,21.128c1.096,1.621,5.826-10.526-1.719-28.898
						c0,0-0.568-2.184,0.306-2.989c0.875-0.806,10.228,12.572,9.827,38.628c-0.399,26.056-17.622,44.649-45.126,45.899
						c-27.505,1.249-33.53-21.372-30.412-44.773l22.911-15.357L379.802,221.554z"/>
					<path style="fill-rule:evenodd;clip-rule:evenodd;fill:#F4AD85;" d="M437.71,242.355l-1.505,9.5
						c-2.6,16.42-18.161,27.726-34.578,25.126l0,0c-16.42-2.601-27.726-18.161-25.127-34.581l3.745-23.653l0.001,0.001
						c0,0,3.023-15.978,18.06-19.708C413.342,195.311,440.977,217.793,437.71,242.355z"/>
					<path style="fill-rule:evenodd;clip-rule:evenodd;fill:#ED9072;" d="M437.71,242.355l-1.505,9.5
						c-2.6,16.42-18.161,27.726-34.578,25.126l0,0c22.642,2.387,36.083-34.626,29.168-47.882
						c-6.918-13.256-21.193-17.255-21.193-17.255l3.675-4.585c0,0,3.426-0.083,8.573,0.1
						C431.722,215.575,439.533,228.641,437.71,242.355z"/>
					<path style="fill-rule:evenodd;clip-rule:evenodd;fill:#010518;" d="M381.844,213.845c2.142-5.022,6.845-12.418,16.463-14.805
						c11.325-2.81,29.797,9.256,36.828,25.878C400.971,201.553,385.756,211.356,381.844,213.845z"/>
					<g>
						<path style="fill-rule:evenodd;clip-rule:evenodd;fill:#010518;" d="M405.683,255.799c-0.588,4.277-4.534,7.27-8.811,6.68
							c-4.277-0.588-7.269-4.533-6.68-8.81l0.014,0.002c0.101-0.735,0.785-1.255,1.521-1.153l12.79,1.76
							c0.736,0.101,1.255,0.786,1.154,1.521L405.683,255.799z"/>
						<path style="fill-rule:evenodd;clip-rule:evenodd;fill:#D64341;" d="M401.968,261.433c-1.477,0.891-3.256,1.3-5.097,1.046
							c-1.503-0.205-2.848-0.827-3.933-1.731c0.814-1.508,2.715-2.458,4.822-2.248C399.77,258.7,401.388,259.898,401.968,261.433z"
							/>
						<path style="fill-rule:evenodd;clip-rule:evenodd;fill:#333333;" d="M391.553,252.506l12.021,1.653
							c0.008,1.355-0.792,2.614-1.728,2.783c-1.137,0.205-9.804-1.218-10.325-1.986
							C391.271,254.585,391.376,253.514,391.553,252.506z"/>
					</g>
					<path style="fill-rule:evenodd;clip-rule:evenodd;fill:#E6E4EB;" d="M377.709,299.997c9.704,13.462,26.679,3.598,38.901-2.741
						c3.132-1.624,3.077-1.204,1.181,1.787C405.262,318.816,378.513,322.803,377.709,299.997z"/>
				</g>
			</g>
			<path style="fill-rule:evenodd;clip-rule:evenodd;fill:#F4AD85;" d="M348.332,235.115c3.084-1.819,3.717-3.243,5.22-0.87
				c1.502,2.373,6.604,1.076,5.535-0.791c-1.576-2.752-1.32-2.565,0.206-2.044c3.995,1.362,7.579-0.566,5.093-3.491
				c0,0,4.349,1.186,5.297-0.711c0.95-1.898-1.106-3.955-1.106-3.955s-0.121-1.107,0.64-1.179c1.042-0.098,1.613,2.044,3.709,0.704
				c1.178-0.753-0.317-4.745-2.056-5.536c-1.74-0.791-6.722-1.028-8.146-0.396c-1.423,0.633-1.819,2.926-1.819,2.926
				c-3.326-0.484-4.923,0.392-5.219,3.48c-0.105,1.095-2.924,0.724-3.79,2.06c-0.488,0.751,0.966,4.105-0.798,4.029
				C349.282,229.263,349.044,231.793,348.332,235.115z"/>
			<g>
				<path style="fill-rule:evenodd;clip-rule:evenodd;fill:#F4AD85;" d="M515.949,287.375c-0.77-4.047-4.587-13.043-5.506-13.996
					c-1.213-1.261,5.184-5.106,7.45,0.965c0,0,2.994,4.032,4.157,3.358c1.162-0.672,3.427-16.26,3.622-18.205
					c0.196-1.945,2.85-2.096,3.452-1.547c0.604,0.549,0.049,3.049-0.111,6.641c-0.157,3.593-0.294,5.817,0.01,6.173
					c0.861,1.006,5.156-12.213,6.686-13.068c0.962-0.541,4.006,0.762,3.845,2.582c-0.161,1.82-4.921,12.595-5.093,14.169
					c-0.172,1.573,0.756,0.708,1.458-0.149c0.7-0.857,7.117-11.575,7.998-12.111c0.88-0.536,3.689,1.086,3.036,2.931
					c-0.653,1.845-6.733,12.6-6.69,13.503c0.044,0.903,0.675,0.798,2.669-0.615c1.992-1.413,5.943-4.333,7.08-4.052
					c0.739-0.035,1.712,2.225-0.055,4.039c-1.768,1.815-5.995,6.467-6.537,7.233c-2.852,4.051-4.306,8.511-6.964,11.365
					c-0.961,1.032-2.218,1.817-3.629,2.344C524.167,302.173,517.536,295.728,515.949,287.375z"/>
				<path style="fill-rule:evenodd;clip-rule:evenodd;fill:#ED9072;" d="M537.056,295.896c-0.193,0.24-0.393,0.473-0.6,0.694
					c-0.882,0.948-2.014,1.687-3.286,2.209c-0.113,0.047-0.228,0.092-0.343,0.135c-5.689,2.127-10.503,0.076-13.585-3.949
					c-1.61-2.103-2.748-4.744-3.293-7.609c-0.019-0.096-0.038-0.195-0.061-0.297C519.671,295.374,528.432,298.591,537.056,295.896z"
					/>
			</g>
		</g>
		<g>
			<rect x="189.467" y="393.06" style="fill-rule:evenodd;clip-rule:evenodd;fill:#003F6A;" width="9.054" height="11.159"/>
			<path style="fill-rule:evenodd;clip-rule:evenodd;fill:#04263B;" d="M194.137,395.368c1.122,0,2.039,0.917,2.039,2.038v2.62
				h2.345v-6.162h-7.777c-0.447,0-0.873,0.022-1.276,0.064v1.439H194.137z"/>
			<rect x="166.829" y="393.06" style="fill-rule:evenodd;clip-rule:evenodd;fill:#003F6A;" width="9.054" height="11.159"/>
			<path style="fill-rule:evenodd;clip-rule:evenodd;fill:#0076BD;" d="M161.156,427.745h21.365h21.364
				c0.904,0,1.521-0.739,1.373-1.643l-4.006-24.433c-0.148-0.903-1.008-1.643-1.912-1.643h-16.819h-16.82
				c-0.904,0-1.764,0.74-1.912,1.643l-4.006,24.433C159.635,427.006,160.252,427.745,161.156,427.745z"/>
			<path style="fill-rule:evenodd;clip-rule:evenodd;fill:#0E1632;" d="M182.674,426.243h22.737c0.887,0,2.161,0.727,2.83,1.613
				l3.277,4.343h-28.845H153.83l3.278-4.343c0.669-0.887,1.943-1.613,2.83-1.613H182.674z"/>
			<path style="fill-rule:evenodd;clip-rule:evenodd;fill:#004A82;" d="M197.717,402.68l0.253,1.539l3.612,22.024h3.694
				c-0.004-0.046-0.009-0.092-0.018-0.141l-4.006-24.433c-0.148-0.903-1.008-1.643-1.912-1.643h-0.82h-2.345h-6.709h-6.946h-6.639
				h-2.345h-6.709h-1.127c-0.68,0-1.334,0.42-1.68,1.011h2.808h9.054h3.104h10.481h6.339
				C196.709,401.037,197.569,401.776,197.717,402.68L197.717,402.68z M183.605,402.484c6.293,0,11.395,5.102,11.395,11.396
				c0,6.294-5.102,11.395-11.395,11.395c-6.294,0-11.396-5.102-11.396-11.395C172.209,407.586,177.311,402.484,183.605,402.484z"/>
			<path style="fill-rule:evenodd;clip-rule:evenodd;fill:#383D5D;" d="M155.145,431.516h55.059c0.887,0,1.613,0.726,1.613,1.613
				v4.53c0,0.887-0.726,1.612-1.613,1.612h-55.059c-0.887,0-1.612-0.726-1.612-1.612v-4.53
				C153.533,432.241,154.258,431.516,155.145,431.516z"/>
			<circle style="fill-rule:evenodd;clip-rule:evenodd;fill:#333333;" cx="182.559" cy="413.087" r="11.396"/>
			<path style="fill-rule:evenodd;clip-rule:evenodd;fill:#E74D91;" d="M182.559,418.607c3.041,0,5.521-2.48,5.521-5.52
				c0-3.041-2.48-5.522-5.521-5.522c-3.041,0-5.521,2.48-5.521,5.522C177.037,416.127,179.517,418.607,182.559,418.607z"/>
			<path style="fill-rule:evenodd;clip-rule:evenodd;fill:#B92F6D;" d="M188.068,412.72c0.007,0.12,0.012,0.243,0.012,0.367
				c0,0.634-0.107,1.243-0.304,1.81h-5.218c-0.601,0-1.088-0.487-1.088-1.088c0-0.602,0.488-1.089,1.088-1.089H188.068z"/>
			<path style="fill-rule:evenodd;clip-rule:evenodd;fill:#B92F6D;" d="M182.559,410.44c1.462,0,2.648,1.184,2.648,2.647
				c0,1.461-1.185,2.646-2.648,2.646c-1.461,0-2.647-1.185-2.647-2.646C179.912,411.624,181.097,410.44,182.559,410.44z"/>
			<path style="fill-rule:evenodd;clip-rule:evenodd;fill:#C9C4D1;" d="M182.559,405.822c0.673,0,1.222-0.549,1.222-1.221
				c0-0.674-0.549-1.223-1.222-1.223c-0.672,0-1.221,0.549-1.221,1.223C181.338,405.273,181.887,405.822,182.559,405.822z"/>
			<path style="fill-rule:evenodd;clip-rule:evenodd;fill:#C9C4D1;" d="M189.422,406.223c0.478,0.477,0.478,1.251,0,1.728
				c-0.477,0.477-1.249,0.477-1.727,0c-0.477-0.477-0.477-1.251,0-1.728C188.173,405.745,188.946,405.745,189.422,406.223z"/>
			<path style="fill-rule:evenodd;clip-rule:evenodd;fill:#C9C4D1;" d="M189.422,419.951c-0.477,0.477-1.249,0.477-1.727,0
				c-0.477-0.478-0.477-1.251,0-1.729c0.478-0.477,1.251-0.477,1.727,0C189.9,418.7,189.9,419.474,189.422,419.951z"/>
			<path style="fill-rule:evenodd;clip-rule:evenodd;fill:#C9C4D1;" d="M182.559,422.794c-0.675,0-1.221-0.547-1.221-1.222
				c0-0.674,0.546-1.222,1.221-1.222c0.675,0,1.222,0.548,1.222,1.222C183.781,422.247,183.233,422.794,182.559,422.794z"/>
			<path style="fill-rule:evenodd;clip-rule:evenodd;fill:#C9C4D1;" d="M175.695,419.951c-0.477-0.478-0.477-1.251,0-1.729
				c0.477-0.477,1.251-0.477,1.727,0c0.477,0.478,0.477,1.251,0,1.729C176.946,420.428,176.172,420.428,175.695,419.951z"/>
			<path style="fill-rule:evenodd;clip-rule:evenodd;fill:#C9C4D1;" d="M172.852,413.087c0-0.675,0.547-1.222,1.222-1.222
				c0.674,0,1.221,0.547,1.221,1.222c0,0.675-0.547,1.221-1.221,1.221C173.398,414.308,172.852,413.762,172.852,413.087z"/>
			<path style="fill-rule:evenodd;clip-rule:evenodd;fill:#C9C4D1;" d="M175.695,406.223c0.477-0.478,1.251-0.478,1.727,0
				c0.477,0.477,0.477,1.251,0,1.728c-0.477,0.477-1.25,0.477-1.727,0C175.218,407.474,175.218,406.699,175.695,406.223z"/>
			<path style="fill-rule:evenodd;clip-rule:evenodd;fill:#0E1632;" d="M182.559,414.175c-0.601,0-1.088-0.486-1.088-1.088
				c0-0.602,0.488-1.089,1.088-1.089h8.486c0.601,0,1.088,0.487,1.088,1.089c0,0.602-0.487,1.088-1.088,1.088H182.559z"/>
			<path style="fill-rule:evenodd;clip-rule:evenodd;fill:#383D5D;" d="M196.936,393.864c5.962,0,7.982,3.879,7.982,6.942
				l0.995,1.724h12.67l0.855-0.94c0,0,0-2.636,0-4.204c0-1.568,0.303-10.761-13.879-10.761h-23.038h-23.039
				c-14.181,0-13.879,9.192-13.879,10.761c0,1.568,0,4.204,0,4.204l0.855,0.94h12.67l0.995-1.724c0-3.063,2.021-6.942,7.982-6.942
				h14.415H196.936z"/>
			<path style="fill-rule:evenodd;clip-rule:evenodd;fill:#333333;" d="M160.525,400.807h-15.723c-0.549,0-0.999,0.535-0.999,1.188
				v5.862c0,0.653,0.45,1.188,0.999,1.188h15.723c0.549,0,0.998-0.534,0.998-1.188v-5.862
				C161.523,401.342,161.074,400.807,160.525,400.807z"/>
			<path style="fill-rule:evenodd;clip-rule:evenodd;fill:#04263B;" d="M171.499,395.368c1.121,0,2.039,0.917,2.039,2.038v2.62
				h2.345v-6.162h-7.776c-0.448,0-0.873,0.022-1.277,0.064v1.439H171.499z"/>
			<path style="fill-rule:evenodd;clip-rule:evenodd;fill:#0E1632;" d="M209.725,435.206c0,0.887-0.726,1.613-1.613,1.613h-54.579
				v0.84c0,0.281,0.073,0.547,0.202,0.778h57.88c0.128-0.231,0.202-0.497,0.202-0.778v-4.53c0-0.346-0.11-0.667-0.297-0.93
				c0,0,0,0-0.001-0.001l-0.055-0.074c-0.296-0.37-0.751-0.608-1.259-0.608h-0.479v0.684V435.206z"/>
			<path style="fill-rule:evenodd;clip-rule:evenodd;fill:#0E1632;" d="M182.521,393.864h6.946h1.276h6.192
				c0.563,0,1.091,0.034,1.585,0.101c4.74,0.626,6.397,4.068,6.397,6.842h4.032l-0.055-0.092c0-3.489-2.299-7.903-9.085-7.903H183.4
				h-16.41c-6.785,0-9.085,4.414-9.085,7.903l-0.054,0.092h2.272c0-2.833,1.729-6.363,6.705-6.878
				c0.404-0.042,0.829-0.064,1.277-0.064h7.776H182.521z"/>
			<path style="fill-rule:evenodd;clip-rule:evenodd;fill:#F4F4F7;" d="M156.254,402.019h-9.658c-0.338,0-0.614,0.276-0.614,0.614
				v3.033c0,0.338,0.276,0.614,0.614,0.614h9.658c0.337,0,0.613-0.276,0.613-0.614v-3.033
				C156.867,402.295,156.591,402.019,156.254,402.019z"/>
			<path style="fill-rule:evenodd;clip-rule:evenodd;fill:#F4F4F7;" d="M159.655,401.62v4.817c0,0.653-0.45,1.188-0.999,1.188
				h-14.853v0.23c0,0.654,0.45,1.188,0.999,1.188h15.723c0.549,0,0.998-0.534,0.998-1.188v-5.861c0-0.652-0.449-1.188-0.998-1.188
				h-0.401h-0.469V401.62z"/>
			<path style="fill-rule:evenodd;clip-rule:evenodd;fill:#333333;" d="M220.24,400.807h-15.722c-0.55,0-0.999,0.535-0.999,1.188
				v5.862c0,0.653,0.449,1.188,0.999,1.188h15.722c0.55,0,0.999-0.534,0.999-1.188v-5.862
				C221.238,401.342,220.79,400.807,220.24,400.807z"/>
			<path style="fill-rule:evenodd;clip-rule:evenodd;fill:#F4F4F7;" d="M215.969,402.019h-9.658c-0.337,0-0.613,0.276-0.613,0.614
				v3.033c0,0.338,0.276,0.614,0.613,0.614h9.658c0.338,0,0.614-0.276,0.614-0.614v-3.033
				C216.583,402.295,216.307,402.019,215.969,402.019z"/>
			<path style="fill-rule:evenodd;clip-rule:evenodd;fill:#F4F4F7;" d="M219.37,401.62v4.817c0,0.653-0.449,1.188-0.998,1.188
				h-14.853v0.23c0,0.654,0.449,1.188,0.999,1.188h15.722c0.55,0,0.999-0.534,0.999-1.188v-5.861c0-0.652-0.449-1.188-0.999-1.188
				h-0.4h-0.47V401.62z"/>
		</g>
		<path style="fill-rule:evenodd;clip-rule:evenodd;fill:#333333;" d="M526.019,344.488h34.729c0.789,0,1.515,0.282,2.082,0.751
			c0.154,0.065,0.295,0.17,0.404,0.313c0.062,0.081,0.11,0.17,0.145,0.263c0.408,0.546,0.65,1.224,0.65,1.954v20.411
			c0,0.901-0.368,1.721-0.964,2.315v0.004c-0.594,0.593-1.414,0.962-2.317,0.962h-34.729c-0.903,0-1.724-0.369-2.318-0.962
			c-0.595-0.595-0.963-1.416-0.963-2.319V347.77c0-0.734,0.244-1.413,0.653-1.961c0.034-0.09,0.081-0.176,0.142-0.256
			c0.108-0.143,0.249-0.248,0.404-0.313C524.504,344.771,525.23,344.488,526.019,344.488L526.019,344.488z M561.197,369.387
			l-13.764-10.514L544,361.496l-0.002,0.002l-0.012,0.008c-0.027,0.021-0.056,0.041-0.084,0.059l-0.005,0.003l-0.017,0.01
			l-0.005,0.003l-0.018,0.01l-0.003,0.002l-0.019,0.009l-0.002,0.002l-0.02,0.009l-0.003,0.002l-0.021,0.01l-0.002,0.001
			l-0.021,0.008l-0.001,0.001l-0.021,0.009h-0.001c-0.038,0.015-0.076,0.027-0.114,0.037l-0.001,0.001
			c-0.039,0.01-0.077,0.018-0.116,0.022l-0.003,0.001l-0.021,0.002l-0.002,0.001l-0.022,0.002h-0.002l-0.046,0.003h-0.002
			l-0.023,0.001h-0.002h-0.022h-0.002l-0.022-0.001h-0.003l-0.045-0.003h-0.003l-0.021-0.002l-0.003-0.001l-0.022-0.002
			l-0.001-0.001c-0.04-0.004-0.079-0.012-0.117-0.022l-0.001-0.001c-0.039-0.01-0.076-0.022-0.113-0.037h-0.002l-0.021-0.009
			l-0.002-0.001l-0.021-0.008l-0.002-0.001l-0.021-0.01l-0.002-0.002l-0.019-0.009l-0.004-0.002l-0.018-0.009l-0.004-0.002
			l-0.018-0.01l-0.005-0.003l-0.016-0.01l-0.006-0.003c-0.028-0.018-0.056-0.037-0.084-0.059l-0.011-0.008l-0.003-0.002
			l-3.434-2.623l-13.763,10.514c0.141,0.054,0.291,0.082,0.449,0.082h34.729C560.905,369.469,561.057,369.44,561.197,369.387
			L561.197,369.387z M548.662,357.935l13.374,10.216V347.77l-0.002-0.05L548.662,357.935L548.662,357.935z M524.73,368.151
			l13.374-10.216l-13.373-10.216l-0.001,0.05V368.151L524.73,368.151z M543.383,359.465l16.998-12.983h-33.995L543.383,359.465z"/>
		<path style="fill-rule:evenodd;clip-rule:evenodd;fill:#E74D91;" d="M108.457,180.15H163.2c3.977,0,7.23,3.253,7.23,7.229v29.814
			v2.206v18.979c0,0.333-0.19,0.618-0.498,0.746c-0.308,0.128-0.645,0.061-0.879-0.175l-12.319-12.319h-48.276
			c-3.976,0-7.23-3.253-7.23-7.23v-32.02C101.228,183.403,104.481,180.15,108.457,180.15z"/>
		<g>
			<path style="fill-rule:evenodd;clip-rule:evenodd;fill:#333333;" d="M119.7,207.371c2.192,0,3.98-1.789,3.98-3.981
				c0-2.193-1.788-3.982-3.98-3.982c-2.194,0-3.982,1.789-3.982,3.982C115.717,205.582,117.506,207.371,119.7,207.371z"/>
			<path style="fill-rule:evenodd;clip-rule:evenodd;fill:#333333;" d="M135.829,207.371c2.194,0,3.982-1.789,3.982-3.981
				c0-2.193-1.788-3.982-3.982-3.982c-2.193,0-3.981,1.789-3.981,3.982C131.848,205.582,133.636,207.371,135.829,207.371z"/>
			<path style="fill-rule:evenodd;clip-rule:evenodd;fill:#333333;" d="M151.959,207.371c2.193,0,3.982-1.789,3.982-3.981
				c0-2.193-1.789-3.982-3.982-3.982s-3.982,1.789-3.982,3.982C147.977,205.582,149.766,207.371,151.959,207.371z"/>
		</g>
		<g>
			<path style="fill-rule:evenodd;clip-rule:evenodd;fill:#C9C4D1;" d="M431.567,322.799H298.81c-1.679,0-3.332,1.375-3.672,3.055
				l-16.912,83.495c-0.136,0.676-0.04,1.304,0.233,1.812c0.544,1.013,2.857,3.543,3.454,3.519l128.085-5.41
				c1.674-0.07,3.205-1.411,3.673-3.053l22.691-79.739c0.009-0.03-2.563-2.746-3.347-3.264
				C432.617,322.949,432.125,322.799,431.567,322.799z"/>
			<path style="fill-rule:evenodd;clip-rule:evenodd;fill:#333333;" d="M434.378,325.567h-132.76c-1.679,0-3.332,1.374-3.672,3.054
				l-16.912,83.495c-0.34,1.68,0.755,3.054,2.435,3.054h132.758c1.68,0,3.333-1.374,3.672-3.054l16.913-83.495
				C437.153,326.941,436.057,325.567,434.378,325.567z"/>
			<path style="fill-rule:evenodd;clip-rule:evenodd;fill:#EBEAEF;" d="M400.384,360.518h-58.453c-1.286,0-2.533,1.052-2.772,2.337
				l-7.224,38.872c-0.239,1.285,0.617,2.337,1.902,2.337h58.453c1.285,0,2.532-1.052,2.773-2.337l7.224-38.872
				C402.524,361.569,401.67,360.518,400.384,360.518z"/>
			<path style="fill-rule:evenodd;clip-rule:evenodd;fill:#C5C1CD;" d="M369.247,379.786h-17.214c-2.12,0-3.434,1.733-2.919,3.853
				l11.934,49.205c0.514,2.119,2.668,3.852,4.788,3.852h17.214c2.119,0,3.433-1.733,2.919-3.852l-11.933-49.205
				C373.522,381.52,371.367,379.786,369.247,379.786z"/>
			<path style="fill-rule:evenodd;clip-rule:evenodd;fill:#333333;" d="M375.193,379.786h-17.214c-2.119,0-3.433,1.733-2.918,3.853
				l11.934,49.205c0.514,2.119,2.668,3.852,4.787,3.852h17.214c2.12,0,3.434-1.733,2.92-3.852l-11.935-49.205
				C379.467,381.52,377.314,379.786,375.193,379.786z"/>
			<path style="fill-rule:evenodd;clip-rule:evenodd;fill:#333333;" d="M411.119,442.829h-77.282c-2.52,0-4.583-2.061-4.583-4.583
				l0,0c0-2.521,2.063-4.583,4.583-4.583h77.282c2.52,0,4.582,2.062,4.582,4.583l0,0
				C415.701,440.768,413.639,442.829,411.119,442.829z"/>
			<path style="fill-rule:evenodd;clip-rule:evenodd;fill:#C5C1CD;" d="M349.293,442.829h-28.854c-2.522,0-4.583-2.061-4.583-4.583
				l0,0c0-2.521,2.062-4.583,4.583-4.583h28.854c2.521,0,4.583,2.062,4.583,4.583l0,0
				C353.876,440.768,351.814,442.829,349.293,442.829z"/>
			<path style="fill-rule:evenodd;clip-rule:evenodd;fill:#EBEAEF;" d="M418.731,332.925h-0.712c-0.581,0-1.145,0.477-1.252,1.058
				l-3.27,17.59c-0.108,0.581,0.28,1.058,0.862,1.058h0.71c0.582,0,1.145-0.476,1.254-1.058l3.269-17.59
				C419.7,333.4,419.314,332.925,418.731,332.925z"/>
			<path style="fill-rule:evenodd;clip-rule:evenodd;fill:#EBEAEF;" d="M413.15,332.925h-0.712c-0.58,0-1.146,0.477-1.253,1.058
				l-3.268,17.59c-0.108,0.581,0.278,1.058,0.86,1.058h0.711c0.581,0,1.147-0.476,1.254-1.058l3.268-17.59
				C414.119,333.4,413.731,332.925,413.15,332.925z"/>
			<path style="fill-rule:evenodd;clip-rule:evenodd;fill:#EBEAEF;" d="M407.568,332.925h-0.711c-0.581,0-1.145,0.477-1.253,1.058
				l-3.27,17.59c-0.108,0.581,0.279,1.058,0.861,1.058h0.711c0.581,0,1.146-0.476,1.254-1.058l3.269-17.59
				C408.538,333.4,408.15,332.925,407.568,332.925z"/>
			<path style="fill-rule:evenodd;clip-rule:evenodd;fill:#EBEAEF;" d="M401.988,332.925h-0.712c-0.582,0-1.146,0.477-1.254,1.058
				l-3.269,17.59c-0.107,0.581,0.279,1.058,0.86,1.058h0.712c0.581,0,1.145-0.476,1.253-1.058l3.27-17.59
				C402.956,333.4,402.569,332.925,401.988,332.925z"/>
			<path style="fill-rule:evenodd;clip-rule:evenodd;fill:#EBEAEF;" d="M396.406,332.925h-0.711c-0.582,0-1.145,0.477-1.254,1.058
				l-3.269,17.59c-0.108,0.581,0.278,1.058,0.859,1.058h0.712c0.582,0,1.147-0.476,1.254-1.058l3.27-17.59
				C397.375,333.4,396.987,332.925,396.406,332.925z"/>
			<path style="fill-rule:evenodd;clip-rule:evenodd;fill:#EBEAEF;" d="M390.824,332.925h-0.71c-0.583,0-1.146,0.477-1.255,1.058
				l-3.269,17.59c-0.108,0.581,0.28,1.058,0.86,1.058h0.712c0.581,0,1.146-0.476,1.253-1.058l3.27-17.59
				C391.793,333.4,391.407,332.925,390.824,332.925z"/>
			<path style="fill-rule:evenodd;clip-rule:evenodd;fill:#EBEAEF;" d="M385.243,332.925h-0.711c-0.581,0-1.146,0.477-1.254,1.058
				l-3.268,17.59c-0.108,0.581,0.279,1.058,0.86,1.058h0.711c0.581,0,1.146-0.476,1.255-1.058l3.268-17.59
				C386.211,333.4,385.825,332.925,385.243,332.925z"/>
			<path style="fill-rule:evenodd;clip-rule:evenodd;fill:#EBEAEF;" d="M379.662,332.925h-0.712c-0.581,0-1.145,0.477-1.253,1.058
				l-3.269,17.59c-0.108,0.581,0.28,1.058,0.861,1.058h0.711c0.581,0,1.145-0.476,1.253-1.058l3.269-17.59
				C380.631,333.4,380.244,332.925,379.662,332.925z"/>
			<path style="fill-rule:evenodd;clip-rule:evenodd;fill:#EBEAEF;" d="M374.081,332.925h-0.711c-0.581,0-1.146,0.477-1.254,1.058
				l-3.268,17.59c-0.108,0.581,0.28,1.058,0.861,1.058h0.711c0.582,0,1.145-0.476,1.254-1.058l3.27-17.59
				C375.05,333.4,374.663,332.925,374.081,332.925z"/>
			<path style="fill-rule:evenodd;clip-rule:evenodd;fill:#EBEAEF;" d="M368.5,332.925h-0.711c-0.582,0-1.146,0.477-1.253,1.058
				l-3.27,17.59c-0.107,0.581,0.28,1.058,0.862,1.058h0.71c0.582,0,1.146-0.476,1.254-1.058l3.268-17.59
				C369.468,333.4,369.081,332.925,368.5,332.925z"/>
			<path style="fill-rule:evenodd;clip-rule:evenodd;fill:#EBEAEF;" d="M362.918,332.925h-0.711c-0.582,0-1.146,0.477-1.254,1.058
				l-3.268,17.59c-0.108,0.581,0.278,1.058,0.861,1.058h0.71c0.582,0,1.146-0.476,1.254-1.058l3.269-17.59
				C363.887,333.4,363.5,332.925,362.918,332.925z"/>
			<path style="fill-rule:evenodd;clip-rule:evenodd;fill:#EBEAEF;" d="M357.337,332.925h-0.711c-0.581,0-1.146,0.477-1.253,1.058
				l-3.269,17.59c-0.108,0.581,0.279,1.058,0.861,1.058h0.711c0.581,0,1.145-0.476,1.253-1.058l3.27-17.59
				C358.305,333.4,357.918,332.925,357.337,332.925z"/>
			<path style="fill-rule:evenodd;clip-rule:evenodd;fill:#EBEAEF;" d="M351.755,332.925h-0.711c-0.581,0-1.146,0.477-1.253,1.058
				l-3.269,17.59c-0.108,0.581,0.279,1.058,0.861,1.058h0.711c0.581,0,1.146-0.476,1.254-1.058l3.268-17.59
				C352.725,333.4,352.337,332.925,351.755,332.925z"/>
			<path style="fill-rule:evenodd;clip-rule:evenodd;fill:#EBEAEF;" d="M346.175,332.925h-0.712c-0.582,0-1.145,0.477-1.253,1.058
				l-3.269,17.59c-0.107,0.581,0.279,1.058,0.86,1.058h0.711c0.582,0,1.146-0.476,1.254-1.058l3.269-17.59
				C347.143,333.4,346.756,332.925,346.175,332.925z"/>
			<path style="fill-rule:evenodd;clip-rule:evenodd;fill:#EBEAEF;" d="M340.593,332.925h-0.712c-0.581,0-1.145,0.477-1.253,1.058
				l-3.268,17.59c-0.108,0.581,0.279,1.058,0.86,1.058h0.712c0.582,0,1.145-0.476,1.253-1.058l3.27-17.59
				C341.561,333.4,341.174,332.925,340.593,332.925z"/>
			<path style="fill-rule:evenodd;clip-rule:evenodd;fill:#EBEAEF;" d="M335.011,332.925h-0.71c-0.582,0-1.146,0.477-1.253,1.058
				l-3.27,17.59c-0.108,0.581,0.279,1.058,0.861,1.058h0.711c0.582,0,1.146-0.476,1.253-1.058l3.269-17.59
				C335.979,333.4,335.593,332.925,335.011,332.925z"/>
			<path style="fill-rule:evenodd;clip-rule:evenodd;fill:#EBEAEF;" d="M329.43,332.925h-0.711c-0.581,0-1.145,0.477-1.253,1.058
				l-3.27,17.59c-0.108,0.581,0.28,1.058,0.861,1.058h0.711c0.581,0,1.146-0.476,1.254-1.058l3.268-17.59
				C330.399,333.4,330.012,332.925,329.43,332.925z"/>
			<path style="fill-rule:evenodd;clip-rule:evenodd;fill:#EBEAEF;" d="M323.848,332.925h-0.711c-0.581,0-1.145,0.477-1.253,1.058
				l-3.269,17.59c-0.108,0.581,0.278,1.058,0.86,1.058h0.711c0.581,0,1.147-0.476,1.254-1.058l3.27-17.59
				C324.817,333.4,324.431,332.925,323.848,332.925z"/>
			<path style="fill-rule:evenodd;clip-rule:evenodd;fill:#EBEAEF;" d="M318.268,332.925h-0.711c-0.581,0-1.146,0.477-1.254,1.058
				l-3.268,17.59c-0.108,0.581,0.278,1.058,0.861,1.058h0.71c0.582,0,1.146-0.476,1.254-1.058l3.27-17.59
				C319.236,333.4,318.849,332.925,318.268,332.925z"/>
		</g>
		<g>
			<path style="fill-rule:evenodd;clip-rule:evenodd;fill:#333333;" d="M165.171,132.845c-0.863,2.433-2.638,4.312-4.809,5.668
				c-1.033,0.646-2.356,1.292-3.536,1.627c-0.554,0.159-1.136-0.161-1.296-0.714c-0.037-0.128-0.05-0.263-0.036-0.394
				c0.108-1.071,0.107-2.154-0.034-3.222c-0.078-0.596-0.199-1.186-0.368-1.763c-4.736-0.637-9.079-2.937-12.285-6.485
				c-3.369-3.727-5.216-8.527-5.216-13.552c0-5.38,2.118-10.495,5.922-14.298c3.804-3.803,8.918-5.922,14.297-5.922
				c5.381,0,10.494,2.119,14.298,5.922c3.804,3.805,5.922,8.917,5.922,14.298c0,4.163-1.266,8.191-3.657,11.599
				C172.088,128.868,168.88,131.395,165.171,132.845L165.171,132.845z M157.665,137.592c2.543-1.139,4.858-3.104,5.663-5.844
				c0.093-0.32,0.334-0.575,0.648-0.689c3.508-1.268,6.545-3.603,8.686-6.654c2.143-3.055,3.275-6.665,3.275-10.396
				c0-4.824-1.899-9.406-5.309-12.816c-3.41-3.41-7.992-5.309-12.816-5.309c-4.823,0-9.405,1.898-12.815,5.309
				c-3.41,3.41-5.308,7.992-5.308,12.816c0,4.504,1.652,8.808,4.671,12.149c3.016,3.336,7.146,5.438,11.624,5.886
				c0.402,0.04,0.745,0.308,0.881,0.688c0.326,0.907,0.547,1.85,0.672,2.805C157.626,136.218,157.667,136.905,157.665,137.592z"/>
			<path style="fill-rule:evenodd;clip-rule:evenodd;fill:#333333;" d="M165.442,103.442c-0.461-1.077-1.332-2.187-2.805-3.122
				c-0.562,0.488-2.083,2.051-3.043,5.365c0.833,0.555,3.127,2.309,2.051,4.173l-4.477,7.749c-1.088,1.812-3.726,0.715-4.617,0.275
				c-2.396,2.493-2.986,4.594-3.125,5.317c1.546,0.808,2.944,1.008,4.108,0.868c1.654-0.199,2.827-1.071,3.268-1.837l8.694-15.056
				C165.931,106.402,166.091,104.961,165.442,103.442z"/>
		</g>
		<path style="fill-rule:evenodd;clip-rule:evenodd;fill:#0076BD;" d="M540.158,185.427h-54.743c-3.977,0-7.23,3.253-7.23,7.229
			v29.815v2.206v18.978c0,0.333,0.19,0.619,0.499,0.746c0.308,0.127,0.643,0.061,0.879-0.175l12.319-12.32h48.276
			c3.976,0,7.229-3.253,7.229-7.229v-32.02C547.388,188.68,544.134,185.427,540.158,185.427z"/>
		<g>
			<path style="fill-rule:evenodd;clip-rule:evenodd;fill:#333333;" d="M528.916,212.648c2.193,0,3.981-1.789,3.981-3.981
				c0-2.193-1.788-3.981-3.981-3.981c-2.192,0-3.981,1.788-3.981,3.981C524.935,210.859,526.724,212.648,528.916,212.648z"/>
			<path style="fill-rule:evenodd;clip-rule:evenodd;fill:#333333;" d="M512.786,212.648c2.192,0,3.982-1.789,3.982-3.981
				c0-2.193-1.789-3.981-3.982-3.981c-2.193,0-3.981,1.788-3.981,3.981C508.805,210.859,510.593,212.648,512.786,212.648z"/>
			<path style="fill-rule:evenodd;clip-rule:evenodd;fill:#333333;" d="M496.656,212.648c2.192,0,3.98-1.789,3.98-3.981
				c0-2.193-1.788-3.981-3.98-3.981c-2.193,0-3.982,1.788-3.982,3.981C492.674,210.859,494.463,212.648,496.656,212.648z"/>
		</g>
		<g>
			<path style="fill-rule:evenodd;clip-rule:evenodd;fill:#333333;" d="M294.565,166.659c10.426,0,18.931-8.504,18.931-18.931
				c0-10.426-8.505-18.931-18.931-18.931c-10.428,0-18.931,8.505-18.931,18.931C275.634,158.155,284.137,166.659,294.565,166.659z"
				/>
			
				<ellipse transform="matrix(0.7071 -0.7071 0.7071 0.7071 -50.4265 264.9129)" style="fill-rule:evenodd;clip-rule:evenodd;fill:#333333;" cx="294.565" cy="193.327" rx="18.931" ry="18.931"/>
			<path style="fill-rule:evenodd;clip-rule:evenodd;fill:#9EB1D9;" d="M295.508,187.552c1.079-3.988,3.095-5.54,3.303-5.692
				c0.122-0.098,0.298-0.115,0.441-0.031c1.628,0.966,2.581,2.158,3.077,3.321c0.69,1.615,0.496,3.189,0.011,4.053l-7.846,13.59
				c-0.497,0.858-1.771,1.83-3.531,2.042c-1.251,0.151-2.754-0.077-4.399-0.997c-0.136-0.069-0.224-0.216-0.211-0.378
				c0-0.007,0.207-2.638,3.268-5.718c0.12-0.133,0.322-0.169,0.483-0.076c0.007,0.005,2.592,1.496,3.385,0.161l4.026-6.975
				c0.751-1.3-1.602-2.732-1.809-2.855C295.547,187.915,295.461,187.732,295.508,187.552z"/>
			<g>
				<path style="fill-rule:evenodd;clip-rule:evenodd;fill:#9EB1D9;" d="M329.171,136.687c-0.411,0-0.745-0.334-0.745-0.746
					c0-0.412,0.334-0.746,0.745-0.746h23.902c0.411,0,0.745,0.333,0.745,0.746c0,0.412-0.334,0.746-0.745,0.746H329.171z"/>
				<path style="fill-rule:evenodd;clip-rule:evenodd;fill:#9EB1D9;" d="M329.388,141.322c-0.412,0-0.746-0.334-0.746-0.746
					c0-0.413,0.334-0.746,0.746-0.746h9.198c0.412,0,0.746,0.333,0.746,0.746c0,0.412-0.335,0.746-0.746,0.746H329.388z"/>
				<path style="fill-rule:evenodd;clip-rule:evenodd;fill:#9EB1D9;" d="M329.171,146.284c-0.412,0-0.746-0.334-0.746-0.746
					c0-0.412,0.334-0.747,0.746-0.747h9.56c0.412,0,0.746,0.335,0.746,0.747c0,0.411-0.334,0.746-0.746,0.746H329.171z"/>
				<path style="fill-rule:evenodd;clip-rule:evenodd;fill:#9EB1D9;" d="M329.171,150.648c-0.412,0-0.746-0.334-0.746-0.746
					c0-0.412,0.334-0.746,0.746-0.746h19.122c0.411,0,0.745,0.334,0.745,0.746c0,0.412-0.334,0.746-0.745,0.746H329.171z"/>
				<path style="fill-rule:evenodd;clip-rule:evenodd;fill:#9EB1D9;" d="M328.633,155.285c-0.115,0-0.208-0.335-0.208-0.746
					c0-0.412,0.093-0.746,0.208-0.746h8.566c0.116,0,0.208,0.334,0.208,0.746c0,0.411-0.093,0.746-0.208,0.746H328.633z"/>
				<path style="fill-rule:evenodd;clip-rule:evenodd;fill:#9EB1D9;" d="M329.171,160.263c-0.412,0-0.746-0.334-0.746-0.746
					c0-0.412,0.334-0.746,0.746-0.746h30.71c0.412,0,0.746,0.334,0.746,0.746c0,0.412-0.334,0.746-0.746,0.746H329.171z"/>
			</g>
			<g>
				<path style="fill-rule:evenodd;clip-rule:evenodd;fill:#9EB1D9;" d="M329.171,182.286c-0.411,0-0.745-0.334-0.745-0.747
					c0-0.411,0.334-0.746,0.745-0.746h23.902c0.411,0,0.745,0.334,0.745,0.746c0,0.412-0.334,0.747-0.745,0.747H329.171z"/>
				<path style="fill-rule:evenodd;clip-rule:evenodd;fill:#9EB1D9;" d="M329.388,186.92c-0.412,0-0.746-0.334-0.746-0.746
					c0-0.412,0.334-0.746,0.746-0.746h9.198c0.412,0,0.746,0.334,0.746,0.746c0,0.412-0.335,0.746-0.746,0.746H329.388z"/>
				<path style="fill-rule:evenodd;clip-rule:evenodd;fill:#9EB1D9;" d="M329.171,191.882c-0.412,0-0.746-0.334-0.746-0.746
					c0-0.411,0.334-0.746,0.746-0.746h9.56c0.412,0,0.746,0.334,0.746,0.746c0,0.413-0.334,0.746-0.746,0.746H329.171z"/>
				<path style="fill-rule:evenodd;clip-rule:evenodd;fill:#9EB1D9;" d="M329.171,196.245c-0.412,0-0.746-0.333-0.746-0.745
					c0-0.412,0.334-0.746,0.746-0.746h19.122c0.411,0,0.745,0.334,0.745,0.746c0,0.412-0.334,0.745-0.745,0.745H329.171z"/>
				<path style="fill-rule:evenodd;clip-rule:evenodd;fill:#9EB1D9;" d="M329.171,200.883c-0.412,0-0.746-0.334-0.746-0.746
					c0-0.412,0.334-0.746,0.746-0.746h30.71c0.412,0,0.746,0.334,0.746,0.746c0,0.412-0.334,0.746-0.746,0.746H329.171z"/>
				<path style="fill-rule:evenodd;clip-rule:evenodd;fill:#9EB1D9;" d="M328.573,205.861c-0.082,0-0.148-0.333-0.148-0.746
					c0-0.412,0.066-0.746,0.148-0.746h6.081c0.082,0,0.148,0.335,0.148,0.746c0,0.412-0.066,0.746-0.148,0.746H328.573z"/>
			</g>
			<path style="fill-rule:evenodd;clip-rule:evenodd;fill:#9EB1D9;" d="M287.273,162.318l-1.637-1.598c0,0-0.178,0.105-0.496,0.389
				C285.819,161.561,286.532,161.966,287.273,162.318z"/>
			<path style="fill-rule:evenodd;clip-rule:evenodd;fill:#9EB1D9;" d="M287.273,162.318l-1.637-1.598c0,0-0.178,0.105-0.496,0.389
				C285.819,161.561,286.531,161.966,287.273,162.318z"/>
			<path style="fill-rule:evenodd;clip-rule:evenodd;fill:#9EB1D9;" d="M301.809,162.318l1.638-1.598c0,0,0.178,0.105,0.496,0.389
				C303.264,161.561,302.551,161.966,301.809,162.318z"/>
			<path style="fill-rule:evenodd;clip-rule:evenodd;fill:#9EB1D9;" d="M301.809,162.318l1.638-1.598c0,0,0.178,0.104,0.496,0.389
				C303.264,161.561,302.551,161.966,301.809,162.318z"/>
			<path style="fill-rule:evenodd;clip-rule:evenodd;fill:#E74D91;" d="M300.23,159.43l0.133,0.039h0.002l0,0
				c0.636,0.187,1.828,0.585,3.081,1.252c0.114,0.071,0.279,0.195,0.473,0.404c-2.686,1.784-5.91,2.825-9.378,2.825
				c-3.466,0-6.689-1.04-9.376-2.825c0.194-0.209,0.36-0.333,0.474-0.405c1.253-0.667,2.446-1.064,3.081-1.252l0,0h0.002
				l0.133-0.039l0.009,0.009c1.252-0.253,2.329-0.286,2.329-0.286l3.31,0.477l0.04-0.005l0.039,0.005l3.31-0.477
				c0,0,1.077,0.034,2.329,0.286L300.23,159.43z"/>
			<path style="fill-rule:evenodd;clip-rule:evenodd;fill:#E8685B;" d="M297.251,151.868l-0.079,1.861c0,0,0,3.81,0,4.388
				c0,0.279,0.261,0.683,0.721,1.035c-2.39,2.592-4.311,2.592-6.701,0c0.46-0.352,0.72-0.756,0.72-1.035c0-0.578,0-4.388,0-4.388
				l-0.079-1.861c0,0,1.333,0.24,2.709,0.577C295.918,152.108,297.251,151.868,297.251,151.868z"/>
			<path style="fill-rule:evenodd;clip-rule:evenodd;fill:#0E1632;" d="M285.921,141.405c0,0-0.415,0.834-0.404,1.602
				c0.009,0.768,1.629,1.084,2.183,1.084c0.553,0,15.519,0.553,15.519,0.553s0.464-0.086,0.464-0.533
				c0-0.447-2.566-6.044-2.566-6.044L285.921,141.405z"/>
			<path style="fill-rule:evenodd;clip-rule:evenodd;fill:#E8685B;" d="M286.378,146.155c1.315,0,2.382,1.066,2.382,2.382
				s-1.067,2.382-2.382,2.382s-2.382-1.067-2.382-2.382S285.063,146.155,286.378,146.155z"/>
			<path style="fill-rule:evenodd;clip-rule:evenodd;fill:#E8685B;" d="M302.75,146.155c1.315,0,2.383,1.066,2.383,2.382
				s-1.067,2.382-2.383,2.382c-1.316,0-2.382-1.067-2.382-2.382S301.434,146.155,302.75,146.155z"/>
			<path style="fill-rule:evenodd;clip-rule:evenodd;fill:#F4AD85;" d="M294.599,133.523L294.599,133.523
				c4.488,0,8.159,3.672,8.159,8.16v7.416c0,4.487-3.671,8.159-8.159,8.159l0,0c-4.489,0-8.16-3.672-8.16-8.159v-7.416
				C286.439,137.194,290.11,133.523,294.599,133.523z"/>
			<path style="fill-rule:evenodd;clip-rule:evenodd;fill:#0E1632;" d="M301.823,141.56c0,0,0,1.555,0,2.56
				c0,1.004,0.183,1.301,0.685,1.667c0,0-0.31,0.971,0.252,1.199c0,0,0-0.518,0.439-0.756v-6.212
				c-0.35,0.403-0.817,0.744-1.438,0.972C301.8,141.167,301.822,141.356,301.823,141.56z"/>
			<path style="fill-rule:evenodd;clip-rule:evenodd;fill:#0E1632;" d="M287.433,141.131c0,0,0,1.122,0,1.846
				c0,0.726-0.132,0.94-0.495,1.204c0,0-0.092,0.616-0.495,0.781l-0.36-4.849c0.253,0.291,0.947,0.441,1.395,0.605
				C287.449,140.848,287.433,140.984,287.433,141.131z"/>
			<path style="fill-rule:evenodd;clip-rule:evenodd;fill:#0E1632;" d="M303.682,144.111c-0.498-0.602-1.132-1.105-1.861-1.522
				l0.002-0.001l-0.036-0.018c-0.075-0.042-0.15-0.084-0.227-0.125c-1.435-0.825-1.926-1.897-1.926-1.897
				c-0.68,0.468-3.467,0.396-4.517,0.352c-0.118-0.006-0.238-0.012-0.357-0.017l-0.019-0.002l-0.027-0.001l-0.001,0.001
				c-4.663-0.185-9.175,0.944-9.197,2.127c-4.04-8.493,6.062-16.671,15.046-7.391C305.314,135.843,304.894,140.718,303.682,144.111z
				"/>
		</g>
		<g>
			<rect x="523.304" y="429.098" style="fill-rule:evenodd;clip-rule:evenodd;fill:#E0DEE1;" width="83.574" height="7.663"/>
			<path style="fill-rule:evenodd;clip-rule:evenodd;fill:#333333;" d="M533.6,429.766c0.914,0,1.656-0.742,1.656-1.656
				c0-0.914-0.742-1.655-1.656-1.655H474.56c-1.778,0-3.395,0.728-4.568,1.899l-0.007,0.007c-1.171,1.173-1.9,2.791-1.9,4.568
				c0,1.778,0.729,3.396,1.9,4.568c1.173,1.179,2.793,1.907,4.575,1.907H533.6c0.914,0,1.656-0.741,1.656-1.656
				c0-0.913-0.742-1.655-1.656-1.655h-2.703c-0.454-0.337-0.905-0.717-1.303-1.131c-0.761-0.791-1.305-1.696-1.217-2.613
				c0.1-1.051,0.775-1.918,1.56-2.583H533.6z"/>
			<path style="fill-rule:evenodd;clip-rule:evenodd;fill:#ACADBB;" d="M606.878,429.766c0.915,0,1.656-0.742,1.656-1.656
				c0-0.914-0.741-1.655-1.656-1.655h-74.045c-1.777,0-3.396,0.728-4.568,1.899l-0.007,0.007c-1.172,1.173-1.901,2.791-1.901,4.568
				c0,1.778,0.729,3.396,1.901,4.568c1.172,1.179,2.792,1.907,4.575,1.907h74.045c0.915,0,1.656-0.741,1.656-1.656
				c0-0.913-0.741-1.655-1.656-1.655h-74.045c-0.869,0-1.659-0.357-2.233-0.931c-0.575-0.571-0.93-1.363-0.93-2.233
				c0-0.869,0.355-1.662,0.926-2.236c0.575-0.57,1.367-0.927,2.237-0.927H606.878z"/>
			<rect x="477.153" y="414.444" style="fill-rule:evenodd;clip-rule:evenodd;fill:#E6E4EB;" width="70.069" height="9.299"/>
			<path style="fill-rule:evenodd;clip-rule:evenodd;fill:#E74D91;" d="M534.732,415.255c-1.109,0-2.009-0.899-2.009-2.008
				c0-1.109,0.899-2.009,2.009-2.009h54.41c2.156,0,4.119,0.884,5.542,2.305l0.008,0.008c1.422,1.423,2.306,3.387,2.306,5.543
				c0,2.157-0.884,4.12-2.306,5.542c-1.421,1.43-3.388,2.314-5.55,2.314h-54.41c-1.109,0-2.009-0.901-2.009-2.01
				c0-1.109,0.899-2.009,2.009-2.009h3.281c0.55-0.408,1.097-0.87,1.579-1.371c0.923-0.96,1.583-2.059,1.477-3.17
				c-0.123-1.276-0.94-2.327-1.893-3.136H534.732z"/>
			<path style="fill-rule:evenodd;clip-rule:evenodd;fill:#CA2871;" d="M477.153,415.255c-1.108,0-2.009-0.899-2.009-2.008
				c0-1.109,0.9-2.009,2.009-2.009h58.51c2.156,0,4.119,0.884,5.542,2.305l0.008,0.008c1.421,1.423,2.306,3.387,2.306,5.543
				c0,2.157-0.885,4.12-2.306,5.542c-1.422,1.43-3.388,2.314-5.55,2.314h-58.51c-1.108,0-2.009-0.901-2.009-2.01
				c0-1.109,0.9-2.009,2.009-2.009h58.51c1.053,0,2.013-0.434,2.708-1.129c0.697-0.692,1.13-1.654,1.13-2.709
				c0-1.055-0.433-2.016-1.126-2.713c-0.696-0.693-1.657-1.126-2.712-1.126H477.153z"/>
			<rect x="529.257" y="398.44" style="fill-rule:evenodd;clip-rule:evenodd;fill:#E6E4EB;" width="45.47" height="9.515"/>
			<path style="fill-rule:evenodd;clip-rule:evenodd;fill:#0E1632;" d="M542.039,399.271c1.134,0,2.056-0.921,2.056-2.056
				c0-1.134-0.922-2.057-2.056-2.057h-33.522c-2.207,0-4.216,0.906-5.672,2.36l-0.008,0.007c-1.454,1.456-2.358,3.466-2.358,5.673
				c0,2.206,0.904,4.216,2.358,5.671c1.454,1.464,3.467,2.368,5.68,2.368h33.522c1.134,0,2.056-0.921,2.056-2.057
				c0-1.134-0.922-2.056-2.056-2.056h-3.358c-0.562-0.417-1.123-0.89-1.615-1.403c-0.945-0.982-1.622-2.107-1.512-3.245
				c0.126-1.304,0.963-2.38,1.938-3.206H542.039z"/>
			<path style="fill-rule:evenodd;clip-rule:evenodd;fill:#383D5D;" d="M574.727,399.271c1.135,0,2.058-0.921,2.058-2.056
				c0-1.134-0.923-2.057-2.058-2.057h-33.64c-2.208,0-4.217,0.906-5.673,2.36l-0.008,0.007c-1.455,1.456-2.359,3.466-2.359,5.673
				c0,2.206,0.904,4.216,2.359,5.671c1.456,1.464,3.467,2.368,5.681,2.368h33.64c1.135,0,2.058-0.921,2.058-2.057
				c0-1.134-0.923-2.056-2.058-2.056h-33.64c-1.078,0-2.061-0.443-2.772-1.155c-0.714-0.709-1.155-1.692-1.155-2.771
				c0-1.081,0.441-2.063,1.15-2.776c0.714-0.71,1.696-1.151,2.777-1.151H574.727z"/>
		</g>
		<g>
			<polygon style="fill-rule:evenodd;clip-rule:evenodd;fill:#01020E;" points="301.743,439.404 266.15,439.404 266.15,426.203 
				295.721,426.203 			"/>
			<polygon style="fill-rule:evenodd;clip-rule:evenodd;fill:#B0DDE5;" points="229.609,439.404 289.699,439.404 295.72,426.203 
				235.631,426.203 			"/>
			<path style="fill-rule:evenodd;clip-rule:evenodd;fill:#333333;" d="M239.183,431.265c-0.337,0-0.665,0.139-0.98,0.414
				c-0.316,0.278-0.585,0.659-0.808,1.147c-0.461,1.012-0.307,1.518,0.464,1.518c0.231,0,0.472-0.032,0.721-0.098
				c0.248-0.064,0.502-0.142,0.765-0.233l-0.549,1.203c-0.528,0.195-1.069,0.291-1.622,0.291c-0.794,0-1.297-0.23-1.511-0.69
				c-0.214-0.461-0.121-1.126,0.276-1.997c0.248-0.543,0.568-1.022,0.962-1.435c0.393-0.413,0.833-0.729,1.32-0.952
				c0.487-0.222,0.99-0.333,1.51-0.333c0.568,0,1.055,0.123,1.46,0.369l-0.945,1.119c-0.152-0.092-0.312-0.167-0.478-0.231
				C239.601,431.295,239.407,431.265,239.183,431.265L239.183,431.265z M243.54,435.435h1.555l0.672-5.283h-1.896l-4.126,5.283
				h1.562l0.716-0.988h1.709L243.54,435.435L243.54,435.435z M243.967,433.283h-1.118c0.594-0.826,0.989-1.38,1.18-1.659
				c0.191-0.282,0.326-0.483,0.404-0.605c-0.037,0.133-0.085,0.35-0.15,0.655c-0.063,0.305-0.113,0.553-0.148,0.744L243.967,433.283
				L243.967,433.283z M246.256,435.435l2.4-5.261h1.42l-1.875,4.111h2.025l-0.524,1.149H246.256L246.256,435.435z M251.138,435.435
				l2.4-5.261h1.421l-1.876,4.111h2.025l-0.525,1.149H251.138L251.138,435.435z M261.584,431.265c-0.337,0-0.665,0.139-0.98,0.414
				c-0.316,0.278-0.585,0.659-0.807,1.147c-0.462,1.012-0.308,1.518,0.463,1.518c0.232,0,0.473-0.032,0.721-0.098
				c0.247-0.064,0.502-0.142,0.765-0.233l-0.549,1.203c-0.528,0.195-1.069,0.291-1.623,0.291c-0.794,0-1.297-0.23-1.511-0.69
				c-0.214-0.461-0.121-1.126,0.276-1.997c0.248-0.543,0.568-1.022,0.963-1.435c0.392-0.413,0.832-0.729,1.319-0.952
				c0.487-0.222,0.99-0.333,1.51-0.333c0.568,0,1.055,0.123,1.46,0.369l-0.945,1.119c-0.152-0.092-0.312-0.167-0.478-0.231
				C262.002,431.295,261.808,431.265,261.584,431.265L261.584,431.265z M265.839,435.435l0.528-1.157h-1.703l0.454-0.994h1.577
				l0.521-1.143h-1.576l0.376-0.825h1.703l0.521-1.142h-3.124l-2.4,5.261H265.839L265.839,435.435z M272.36,435.435h-1.864
				l-0.229-3.707h-0.032c-0.22,0.584-0.401,1.028-0.541,1.335l-1.082,2.372h-1.259l2.4-5.261h1.856l0.246,3.655h0.022
				c0.207-0.53,0.385-0.955,0.532-1.277l1.085-2.378h1.266L272.36,435.435L272.36,435.435z M276.412,435.435h-1.421l1.869-4.098
				h-1.286l0.531-1.163h3.989l-0.531,1.163h-1.282L276.412,435.435L276.412,435.435z M282.162,435.435l0.528-1.157h-1.704
				l0.454-0.994h1.577l0.521-1.143h-1.576l0.375-0.825h1.703l0.521-1.142h-3.124l-2.4,5.261H282.162L282.162,435.435z
				 M285.969,433.519l-0.874,1.916h-1.421l2.4-5.261h1.724c1.429,0,1.908,0.519,1.436,1.553c-0.278,0.609-0.79,1.081-1.537,1.414
				l0.486,2.294h-1.611l-0.243-1.916H285.969L285.969,433.519z M286.456,432.45h0.267c0.498,0,0.848-0.22,1.047-0.658
				c0.166-0.362,0.004-0.543-0.484-0.543h-0.282L286.456,432.45z"/>
		</g>
		<g>
			<path style="fill-rule:evenodd;clip-rule:evenodd;fill:#01020E;" d="M708.966,449.05H95.002c-2.703,0-4.919-2.215-4.919-4.922
				l0,0c0-2.707,2.216-4.921,4.919-4.921h613.964c2.703,0,4.919,2.214,4.919,4.921l0,0
				C713.885,446.835,711.669,449.05,708.966,449.05z"/>
			<path style="fill-rule:evenodd;clip-rule:evenodd;fill:#01020E;" d="M49.769,449.05h21.79c2.707,0,4.921-2.215,4.921-4.922l0,0
				c0-2.707-2.215-4.921-4.921-4.921h-21.79c-2.707,0-4.921,2.214-4.921,4.921l0,0C44.848,446.835,47.062,449.05,49.769,449.05z"/>
		</g>
		<path style="fill-rule:evenodd;clip-rule:evenodd;fill:#BFCCE8;" d="M619.037,239.693c1.412-1.413,3.102-2.552,4.986-3.333
			c1.811-0.75,3.794-1.164,5.868-1.164c2.074,0,4.057,0.414,5.867,1.165c1.884,0.78,3.575,1.92,4.987,3.332
			c1.412,1.412,2.553,3.104,3.332,4.986c0.749,1.811,1.163,3.793,1.163,5.868c0,2.075-0.414,4.058-1.163,5.869
			c-0.779,1.883-1.92,3.574-3.332,4.986c-1.412,1.411-3.102,2.552-4.984,3.33c-1.81,0.752-3.794,1.166-5.87,1.166
			c-2.074,0-4.058-0.414-5.868-1.164c-1.883-0.78-3.574-1.921-4.986-3.332c-1.412-1.412-2.553-3.104-3.332-4.986
			c-0.75-1.81-1.164-3.794-1.164-5.869c0-2.075,0.414-4.057,1.164-5.868C616.484,242.797,617.625,241.105,619.037,239.693
			L619.037,239.693z M624.563,237.672c-1.699,0.705-3.233,1.74-4.519,3.027c-1.288,1.287-2.324,2.82-3.027,4.52
			c-0.679,1.638-1.054,3.438-1.054,5.329c0,1.891,0.375,3.691,1.054,5.33c0.703,1.698,1.739,3.232,3.027,4.519
			c1.286,1.288,2.82,2.323,4.519,3.027c1.639,0.679,3.438,1.054,5.329,1.054c1.889,0,3.688-0.374,5.326-1.054
			c1.702-0.703,3.234-1.739,4.522-3.027c1.287-1.286,2.323-2.82,3.026-4.519c0.679-1.639,1.054-3.438,1.054-5.33
			c0-1.891-0.375-3.69-1.054-5.329c-0.703-1.699-1.739-3.232-3.026-4.52c-1.288-1.288-2.82-2.323-4.519-3.027
			c-1.639-0.679-3.439-1.053-5.329-1.053C628,236.619,626.201,236.993,624.563,237.672L624.563,237.672z M622.865,226.377
			c-0.96,0.276-1.905,0.615-2.829,1.008c-0.936,0.399-1.845,0.854-2.717,1.357c-0.886,0.513-1.741,1.08-2.56,1.697
			c-0.822,0.62-1.603,1.286-2.338,1.995c-0.261,0.251-0.585,0.398-0.919,0.439c-0.341,0.042-0.694-0.028-1.001-0.206
			c-2.254-1.301-4.624-2.59-6.833-3.946c-0.106-0.056-0.219-0.089-0.331-0.102c-0.127-0.013-0.255-0.004-0.377,0.029
			c-0.125,0.033-0.243,0.09-0.346,0.168c-0.097,0.074-0.183,0.17-0.249,0.284c-1.643,2.486-3.292,5.699-4.814,8.336
			c-0.065,0.112-0.104,0.233-0.12,0.354c-0.016,0.127-0.005,0.26,0.029,0.388c0.033,0.125,0.091,0.243,0.168,0.345
			c0.075,0.099,0.171,0.184,0.283,0.249c2.029,1.341,4.642,2.682,6.791,3.924c0.316,0.181,0.545,0.452,0.678,0.76
			c0.045,0.107,0.079,0.22,0.101,0.335l0.14,0.046l-0.156,0.634c-0.124,0.498-0.231,0.996-0.323,1.492
			c-0.088,0.483-0.165,0.988-0.229,1.514c-0.063,0.513-0.11,1.024-0.14,1.527c-0.03,0.492-0.045,1.008-0.045,1.544
			c0,0.536,0.015,1.051,0.045,1.542c0.029,0.505,0.077,1.015,0.14,1.529c0.063,0.526,0.141,1.031,0.229,1.514
			c0.091,0.496,0.199,0.995,0.322,1.493c0.091,0.369,0.046,0.74-0.102,1.06c-0.148,0.318-0.4,0.586-0.727,0.754l-6.015,3.472
			l0.003,0.003l-0.713,0.411c-0.113,0.065-0.208,0.15-0.283,0.249c-0.077,0.101-0.135,0.22-0.168,0.345
			c-0.034,0.13-0.045,0.262-0.029,0.389c0.016,0.12,0.055,0.241,0.12,0.354l4.452,7.715l0.003-0.002l0.359,0.623
			c0.066,0.113,0.151,0.209,0.249,0.283c0.103,0.078,0.221,0.135,0.346,0.168c0.128,0.034,0.259,0.045,0.386,0.029
			c0.12-0.016,0.24-0.056,0.352-0.12c2.154-1.354,4.584-2.645,6.807-3.928c0.317-0.181,0.664-0.243,0.993-0.204
			c0.342,0.041,0.665,0.191,0.92,0.434l0.003,0.004c0.734,0.708,1.517,1.375,2.34,1.995c0.816,0.617,1.672,1.185,2.558,1.696
			c0.878,0.507,1.792,0.963,2.736,1.365c0.927,0.393,1.888,0.734,2.879,1.018c0.348,0.1,0.639,0.308,0.842,0.578
			c0.207,0.272,0.324,0.614,0.325,0.97l0.003,7.848c0,0.132,0.025,0.257,0.073,0.368c0.048,0.117,0.122,0.226,0.214,0.317
			c0.089,0.091,0.196,0.164,0.316,0.214c0.111,0.047,0.236,0.072,0.369,0.072h9.63c0.131,0,0.256-0.025,0.368-0.072
			c0.118-0.05,0.227-0.123,0.317-0.214c0.091-0.092,0.165-0.2,0.214-0.317c0.046-0.111,0.072-0.236,0.072-0.368v-7.848
			c0-0.373,0.129-0.719,0.349-0.996c0.222-0.281,0.534-0.486,0.89-0.57c0.961-0.277,1.905-0.615,2.829-1.009
			c0.938-0.398,1.845-0.853,2.717-1.357c0.887-0.512,1.74-1.079,2.559-1.696c0.823-0.62,1.604-1.287,2.34-1.996
			c0.273-0.262,0.615-0.408,0.967-0.44c0.357-0.033,0.724,0.055,1.033,0.258l6.717,3.879c0.112,0.065,0.233,0.104,0.356,0.119
			c0.127,0.017,0.26,0.005,0.389-0.029c0.125-0.033,0.243-0.09,0.345-0.168c0.098-0.074,0.184-0.17,0.249-0.283
			c1.596-2.783,3.217-5.554,4.814-8.336c0.064-0.112,0.104-0.233,0.12-0.355c0.016-0.126,0.006-0.259-0.028-0.387
			c-0.034-0.127-0.091-0.245-0.168-0.346c-0.073-0.101-0.167-0.185-0.278-0.248l-6.796-3.924c-0.315-0.182-0.545-0.451-0.677-0.76
			c-0.036-0.084-0.065-0.171-0.086-0.259l-0.178-0.036l0.179-0.721c0.123-0.497,0.231-0.996,0.322-1.491
			c0.088-0.482,0.165-0.989,0.229-1.516c0.063-0.514,0.109-1.024,0.14-1.529c0.029-0.49,0.044-1.006,0.044-1.542
			c0-0.536-0.015-1.05-0.044-1.542c-0.03-0.503-0.077-1.013-0.14-1.526c-0.065-0.533-0.142-1.04-0.229-1.52
			c-0.092-0.494-0.198-0.992-0.322-1.489c-0.091-0.371-0.047-0.743,0.102-1.061c0.15-0.318,0.401-0.586,0.723-0.751l6.731-3.886
			c0.111-0.063,0.204-0.148,0.28-0.248c0.076-0.099,0.134-0.218,0.168-0.347c0.034-0.128,0.044-0.26,0.028-0.386
			c-0.017-0.122-0.056-0.243-0.12-0.355c-1.643-2.444-3.289-5.709-4.814-8.336c-0.065-0.113-0.151-0.209-0.249-0.284
			c-0.102-0.078-0.22-0.135-0.345-0.168c-0.128-0.035-0.261-0.045-0.388-0.029c-0.118,0.015-0.239,0.055-0.354,0.122l-6.801,3.925
			c-0.32,0.187-0.679,0.249-1.019,0.203c-0.343-0.047-0.667-0.203-0.92-0.454c-0.739-0.712-1.517-1.375-2.328-1.985
			c-0.809-0.608-1.66-1.173-2.55-1.688c-0.878-0.507-1.791-0.964-2.735-1.364c-0.927-0.395-1.889-0.736-2.879-1.019
			c-0.35-0.101-0.639-0.309-0.843-0.578c-0.207-0.273-0.324-0.614-0.324-0.971l-0.003-7.847c0-0.132-0.026-0.257-0.072-0.369
			c-0.048-0.116-0.123-0.224-0.215-0.316c-0.09-0.091-0.198-0.164-0.316-0.214c-0.112-0.047-0.237-0.073-0.368-0.073h-9.63
			c-0.133,0-0.258,0.025-0.369,0.073c-0.12,0.049-0.228,0.122-0.318,0.213c-0.175,0.178-0.285,0.42-0.285,0.686v7.847
			c0,0.376-0.13,0.722-0.347,0.996C623.533,226.087,623.221,226.293,622.865,226.377L622.865,226.377z M619.48,226.079
			c-0.99,0.422-1.948,0.902-2.872,1.436c-0.941,0.544-1.845,1.143-2.705,1.791c-0.86,0.65-1.685,1.354-2.466,2.106
			c-0.029,0.029-0.066,0.045-0.107,0.05c-0.04,0.005-0.083-0.002-0.117-0.022c-2.286-1.319-4.575-2.634-6.858-3.96
			c-0.271-0.147-0.563-0.236-0.858-0.271c-0.304-0.034-0.611-0.01-0.901,0.067c-0.302,0.08-0.587,0.22-0.84,0.414
			c-0.243,0.185-0.455,0.42-0.616,0.7c-1.656,2.684-3.229,5.591-4.815,8.335c-0.16,0.279-0.26,0.581-0.298,0.887
			c-0.04,0.316-0.018,0.634,0.063,0.934c0.08,0.3,0.22,0.587,0.413,0.839c0.185,0.243,0.42,0.455,0.699,0.615
			c2.188,1.351,4.559,2.632,6.796,3.925c0.035,0.019,0.063,0.052,0.077,0.088c0.016,0.038,0.022,0.081,0.012,0.119l-0.158,0.634
			l0.011,0.003c-0.068,0.308-0.132,0.621-0.19,0.939c-0.1,0.544-0.182,1.079-0.246,1.603c-0.063,0.52-0.111,1.058-0.145,1.61
			c-0.034,0.554-0.051,1.098-0.051,1.626c0,0.528,0.017,1.072,0.051,1.626c0.033,0.553,0.082,1.091,0.145,1.612
			c0.064,0.523,0.147,1.059,0.246,1.602c0.1,0.541,0.213,1.066,0.339,1.578c0.011,0.041,0.006,0.085-0.013,0.122
			c-0.019,0.041-0.048,0.075-0.084,0.092c-2.497,1.333-5.033,2.902-7.502,4.329l0.089,0.109l-0.075,0.094
			c-0.193,0.253-0.333,0.54-0.413,0.841c-0.08,0.299-0.103,0.616-0.063,0.933c0.038,0.306,0.138,0.607,0.3,0.886l5.173,8.962
			l0.096-0.059c0.052,0.047,0.104,0.092,0.16,0.133c0.253,0.193,0.538,0.334,0.84,0.413c0.297,0.081,0.614,0.103,0.93,0.063
			c0.297-0.038,0.592-0.133,0.863-0.284c2.263-1.201,4.594-2.652,6.828-3.942c0.032-0.018,0.074-0.025,0.113-0.02
			c0.042,0.005,0.083,0.022,0.112,0.051c0.779,0.752,1.603,1.455,2.464,2.104c0.859,0.647,1.762,1.245,2.703,1.789
			c0.93,0.537,1.896,1.02,2.891,1.443c0.989,0.421,2.007,0.782,3.046,1.08c0.041,0.013,0.075,0.036,0.099,0.067
			c0.026,0.035,0.042,0.075,0.039,0.114v7.848c0,0.32,0.064,0.63,0.184,0.913c0.123,0.295,0.301,0.559,0.521,0.778
			c0.222,0.219,0.484,0.398,0.775,0.52c0.283,0.117,0.593,0.183,0.914,0.183h9.63c0.319,0,0.629-0.065,0.912-0.183
			c0.292-0.122,0.556-0.301,0.777-0.52c0.219-0.22,0.397-0.483,0.521-0.778c0.117-0.283,0.184-0.593,0.184-0.913v-7.848
			c0-0.047,0.015-0.088,0.038-0.118c0.024-0.03,0.063-0.055,0.105-0.065l0.031-0.012c1.045-0.301,2.056-0.661,3.025-1.073
			c0.99-0.423,1.949-0.901,2.873-1.436c0.941-0.545,1.845-1.144,2.703-1.791c0.862-0.649,1.686-1.354,2.467-2.106
			c0.032-0.031,0.073-0.049,0.112-0.053c0.042-0.004,0.085,0.007,0.122,0.03l6.796,3.923c0.278,0.161,0.579,0.26,0.882,0.298
			c0.316,0.04,0.635,0.019,0.933-0.063c0.3-0.079,0.587-0.22,0.84-0.413c0.237-0.18,0.444-0.41,0.605-0.68
			c1.785-2.871,3.472-6.015,5.175-8.963l-0.092-0.055c0.018-0.075,0.03-0.151,0.04-0.227c0.041-0.316,0.019-0.633-0.063-0.931
			c-0.08-0.301-0.22-0.588-0.413-0.841c-0.186-0.242-0.42-0.453-0.699-0.614l-6.796-3.924c-0.035-0.021-0.061-0.052-0.078-0.088
			c-0.016-0.039-0.019-0.083-0.01-0.123l0.176-0.719l-0.01-0.002c0.06-0.28,0.118-0.564,0.171-0.853
			c0.1-0.543,0.183-1.079,0.246-1.604c0.064-0.521,0.112-1.06,0.146-1.612c0.033-0.554,0.051-1.098,0.051-1.626
			c0-0.528-0.018-1.071-0.051-1.625c-0.033-0.553-0.082-1.092-0.146-1.616c-0.063-0.52-0.146-1.055-0.246-1.602
			c-0.099-0.539-0.213-1.064-0.339-1.572c-0.01-0.042-0.004-0.085,0.014-0.127c0.017-0.037,0.049-0.069,0.087-0.088l6.788-3.919
			c0.28-0.163,0.515-0.372,0.698-0.616c0.193-0.254,0.332-0.541,0.411-0.837c0.081-0.298,0.104-0.616,0.063-0.931
			c-0.038-0.297-0.133-0.592-0.287-0.867c-1.617-2.996-3.472-6.018-5.184-8.982l-0.097,0.058c-0.052-0.047-0.104-0.091-0.16-0.133
			c-0.253-0.193-0.54-0.333-0.84-0.414c-0.298-0.08-0.615-0.102-0.932-0.063c-0.306,0.039-0.606,0.136-0.883,0.294l-0.503,0.289
			l0.002,0.005l-6.304,3.638c-0.037,0.022-0.08,0.029-0.12,0.024c-0.04-0.006-0.079-0.024-0.108-0.054l-0.017-0.017
			c-0.771-0.743-1.594-1.443-2.461-2.096c-0.861-0.648-1.761-1.245-2.69-1.782c-0.929-0.537-1.896-1.02-2.892-1.443
			c-0.988-0.421-2.007-0.782-3.044-1.08c-0.042-0.011-0.076-0.036-0.1-0.067c-0.025-0.034-0.041-0.075-0.038-0.115v-7.847
			c0-0.321-0.066-0.63-0.184-0.913c-0.123-0.295-0.302-0.559-0.523-0.777c-0.22-0.22-0.483-0.399-0.775-0.52
			c-0.283-0.118-0.593-0.184-0.912-0.184h-9.63c-0.321,0-0.631,0.066-0.914,0.184c-0.291,0.121-0.554,0.3-0.778,0.52
			c-0.434,0.434-0.702,1.033-0.702,1.69v7.847c0,0.046-0.015,0.086-0.039,0.12c-0.025,0.03-0.062,0.055-0.106,0.064l-0.03,0.011
			C621.462,225.306,620.451,225.667,619.48,226.079z"/>
		<path style="fill-rule:evenodd;clip-rule:evenodd;fill:#BFCCE8;" d="M641.153,335.807L641.153,335.807L641.153,335.807z
			 M644.541,322.911c1.179-1.18,2.807-1.909,4.606-1.909c1.8,0,3.428,0.729,4.606,1.909c1.181,1.178,1.909,2.807,1.909,4.607
			s-0.729,3.428-1.909,4.607c-1.179,1.179-2.807,1.907-4.606,1.907c-1.8,0-3.428-0.728-4.606-1.907
			c-1.18-1.18-1.909-2.808-1.909-4.607S643.361,324.089,644.541,322.911L644.541,322.911z M645.947,316.452
			c-0.902,0.261-1.759,0.628-2.553,1.087c-0.815,0.473-1.568,1.041-2.241,1.689c-0.131,0.126-0.326,0.145-0.477,0.058l-3.027-1.748
			l-0.016-0.01c-0.174-0.095-0.371-0.112-0.553-0.063c-0.186,0.051-0.353,0.171-0.456,0.349l-0.013,0.021l-2.13,3.689
			c-0.102,0.178-0.123,0.383-0.073,0.57c0.05,0.185,0.171,0.352,0.349,0.456l0.021,0.012l3.003,1.734
			c0.157,0.09,0.229,0.272,0.189,0.441l0,0c-0.11,0.446-0.195,0.906-0.253,1.376c-0.056,0.459-0.084,0.928-0.084,1.404
			c0,0.477,0.028,0.944,0.084,1.403c0.058,0.47,0.143,0.93,0.253,1.376c0.046,0.186-0.047,0.373-0.211,0.454l-3.002,1.733v0.001
			c-0.178,0.102-0.299,0.27-0.349,0.456s-0.029,0.392,0.073,0.569l2.143,3.711v-0.001c0.103,0.178,0.27,0.299,0.456,0.349
			c0.187,0.051,0.392,0.029,0.568-0.072l0.023-0.013l3.006-1.736c0.157-0.09,0.351-0.06,0.476,0.059
			c0.673,0.649,1.426,1.218,2.241,1.688c0.799,0.462,1.66,0.831,2.569,1.092c0.176,0.051,0.291,0.211,0.292,0.386v3.492
			c0,0.204,0.084,0.393,0.22,0.528c0.137,0.136,0.323,0.221,0.529,0.221h4.285c0.206,0,0.393-0.085,0.528-0.221
			c0.137-0.136,0.222-0.324,0.222-0.528v-3.492c0-0.19,0.132-0.349,0.308-0.391c0.902-0.261,1.759-0.628,2.553-1.087
			c0.816-0.471,1.568-1.039,2.241-1.688c0.137-0.132,0.344-0.147,0.497-0.046l3.007,1.736c0.178,0.103,0.383,0.123,0.569,0.072
			c0.186-0.05,0.353-0.17,0.455-0.349l0.014-0.02l2.13-3.691l0,0c0.103-0.178,0.123-0.383,0.073-0.568
			c-0.051-0.188-0.17-0.354-0.348-0.456l-3.024-1.746c-0.157-0.091-0.229-0.273-0.188-0.442h-0.001
			c0.11-0.445,0.195-0.906,0.253-1.376c0.057-0.458,0.084-0.927,0.084-1.403c0-0.477-0.027-0.946-0.084-1.404
			c-0.058-0.47-0.142-0.93-0.253-1.376c-0.045-0.186,0.048-0.373,0.211-0.454l3.003-1.733c0.178-0.103,0.297-0.27,0.348-0.456
			c0.05-0.187,0.029-0.391-0.073-0.569l-0.013-0.022l-2.13-3.689l0,0c-0.104-0.178-0.271-0.298-0.456-0.349
			c-0.187-0.05-0.392-0.03-0.569,0.072v0.001l-3.026,1.748c-0.162,0.094-0.362,0.061-0.487-0.065
			c-0.67-0.647-1.419-1.212-2.231-1.682c-0.799-0.462-1.661-0.831-2.569-1.092c-0.177-0.05-0.291-0.21-0.291-0.386v-3.491
			c0-0.205-0.085-0.394-0.222-0.528c-0.136-0.136-0.322-0.222-0.528-0.222h-4.285c-0.206,0-0.393,0.086-0.529,0.222
			c-0.136,0.135-0.22,0.323-0.22,0.528v3.491C646.256,316.252,646.123,316.411,645.947,316.452z"/>
		<path style="fill-rule:evenodd;clip-rule:evenodd;fill:#B1C0E2;" d="M383.853,69.729h34.73c0.787,0,1.513,0.283,2.081,0.752
			c0.155,0.065,0.295,0.17,0.405,0.313c0.061,0.082,0.109,0.17,0.143,0.262c0.409,0.547,0.651,1.224,0.651,1.954v20.412
			c0,0.901-0.369,1.721-0.963,2.315v0.003c-0.594,0.594-1.415,0.963-2.317,0.963h-34.73c-0.903,0-1.725-0.369-2.318-0.963
			c-0.594-0.594-0.963-1.414-0.963-2.318V73.011c0-0.734,0.243-1.413,0.653-1.961c0.033-0.089,0.08-0.175,0.142-0.254
			c0.109-0.144,0.249-0.248,0.405-0.313C382.338,70.013,383.064,69.729,383.853,69.729L383.853,69.729z M419.031,94.629
			l-13.764-10.514l-3.434,2.623l-0.003,0.001l-0.011,0.008c-0.026,0.021-0.056,0.041-0.083,0.058l-0.006,0.004l-0.017,0.009
			l-0.004,0.003l-0.018,0.009l-0.004,0.002l-0.019,0.01l-0.003,0.001l-0.019,0.01l-0.003,0.001l-0.019,0.009l-0.003,0.001
			l-0.021,0.009l-0.001,0.001l-0.021,0.009l0,0c-0.038,0.015-0.076,0.026-0.114,0.037h-0.001c-0.039,0.01-0.078,0.018-0.116,0.022
			l-0.002,0l-0.022,0.002l-0.002,0.001l-0.021,0.002l-0.003,0.001l-0.045,0.002h-0.002l-0.023,0h-0.002h-0.02h-0.003l-0.022,0
			h-0.003l-0.045-0.002l-0.002-0.001l-0.022-0.002l-0.002-0.001l-0.022-0.002l-0.001,0c-0.039-0.005-0.077-0.012-0.116-0.022h-0.001
			c-0.039-0.01-0.077-0.022-0.114-0.037l0,0l-0.021-0.009l-0.002-0.001l-0.02-0.009l-0.002-0.001l-0.021-0.009l-0.002-0.001
			l-0.019-0.01l-0.003-0.001l-0.019-0.01l-0.004-0.002l-0.018-0.009l-0.005-0.003l-0.016-0.009l-0.006-0.004
			c-0.028-0.017-0.057-0.037-0.084-0.058l-0.011-0.008l-0.003-0.001l-3.434-2.623l-13.763,10.514
			c0.141,0.053,0.291,0.081,0.449,0.081h34.73C418.739,94.711,418.891,94.682,419.031,94.629L419.031,94.629z M406.497,83.177
			l13.373,10.216V73.011l-0.002-0.049L406.497,83.177L406.497,83.177z M382.564,93.393l13.373-10.216l-13.372-10.215l-0.001,0.049
			V93.393L382.564,93.393z M401.217,84.707l16.998-12.984h-33.994L401.217,84.707z"/>
		<path style="fill-rule:evenodd;clip-rule:evenodd;fill:#B1C0E2;" d="M69.119,174.862c0.854-3.157,2.085-5.358,3.145-6.802
			c1.035-1.409,1.938-2.127,2.168-2.297c0.217-0.175,0.484-0.278,0.758-0.298h0.003c0.266-0.018,0.542,0.042,0.789,0.188
			c1.236,0.733,2.236,1.555,3.037,2.418c0.906,0.978,1.549,2.005,1.982,3.019c0.525,1.23,0.743,2.455,0.746,3.56
			c0.002,1.329-0.307,2.497-0.767,3.314l-0.005,0.006L68.993,198.73c-0.473,0.817-1.331,1.684-2.491,2.354
			c-0.962,0.557-2.14,0.987-3.483,1.148c-1.088,0.132-2.294,0.088-3.589-0.204c-1.133-0.256-2.331-0.706-3.573-1.397
			c-0.245-0.124-0.444-0.317-0.576-0.552v-0.003c-0.129-0.229-0.193-0.497-0.17-0.774v-0.002c0-0.008,0.154-1.965,1.716-4.699
			c0.768-1.342,1.882-2.891,3.5-4.52c0.212-0.221,0.489-0.361,0.781-0.406c0.299-0.046,0.615,0.004,0.894,0.166
			c0.062,0.034,3.303,1.888,4.113,0.524l6.147-10.647c0.34-0.588-0.132-1.32-0.717-1.923c-0.725-0.746-1.624-1.293-1.77-1.379
			c-0.265-0.149-0.47-0.378-0.586-0.645c-0.122-0.275-0.153-0.591-0.071-0.903V174.862L69.119,174.862z M73.517,168.979
			c-0.956,1.302-2.068,3.289-2.858,6.151c0.318,0.196,1.234,0.789,1.999,1.579c1.003,1.034,1.755,2.389,0.949,3.785l-6.153,10.659
			c-1.454,2.449-5.37,0.496-6.103,0.101c-1.461,1.483-2.473,2.894-3.172,4.117c-1.174,2.054-1.446,3.526-1.502,3.938
			c1.084,0.597,2.121,0.984,3.096,1.204c1.104,0.25,2.134,0.287,3.065,0.174c1.12-0.135,2.095-0.489,2.887-0.947
			c0.915-0.529,1.575-1.185,1.924-1.788l11.979-20.745l-0.002-0.001c0.342-0.61,0.574-1.507,0.571-2.554
			c-0.002-0.907-0.184-1.921-0.623-2.952c-0.37-0.864-0.919-1.74-1.691-2.574c-0.674-0.729-1.526-1.43-2.586-2.071
			C75.047,167.248,74.355,167.836,73.517,168.979z"/>
		<path style="fill-rule:evenodd;clip-rule:evenodd;fill:#BFCCE8;" d="M654.217,415.612c0-0.616-0.5-1.117-1.116-1.117
			c-0.617,0-1.118,0.501-1.118,1.117v2.628h-2.628c-0.616,0-1.117,0.5-1.117,1.117c0,0.617,0.501,1.117,1.117,1.117h2.628v2.628
			c0,0.618,0.501,1.118,1.118,1.118c0.616,0,1.116-0.5,1.116-1.118v-2.628h2.629c0.617,0,1.116-0.5,1.116-1.117
			c0-0.617-0.499-1.117-1.116-1.117h-2.629V415.612z"/>
		<path style="fill-rule:evenodd;clip-rule:evenodd;fill:#BFCCE8;" d="M296.133,262.509c0-0.617-0.501-1.117-1.118-1.117
			c-0.617,0-1.117,0.5-1.117,1.117v2.627h-2.628c-0.617,0-1.117,0.501-1.117,1.118c0,0.617,0.501,1.117,1.117,1.117h2.628v2.628
			c0,0.618,0.5,1.117,1.117,1.117c0.617,0,1.118-0.499,1.118-1.117v-2.628h2.627c0.617,0,1.118-0.5,1.118-1.117
			c0-0.617-0.501-1.118-1.118-1.118h-2.627V262.509z"/>
		<path style="fill-rule:evenodd;clip-rule:evenodd;fill:#BFCCE8;" d="M172.13,278.958c0-0.618-0.499-1.117-1.117-1.117
			c-0.617,0-1.117,0.499-1.117,1.117v2.628h-2.628c-0.617,0-1.117,0.499-1.117,1.117c0,0.617,0.5,1.118,1.117,1.118h2.628v2.627
			c0,0.617,0.5,1.118,1.117,1.118c0.618,0,1.117-0.501,1.117-1.118v-2.627h2.628c0.618,0,1.117-0.501,1.117-1.118
			c0-0.618-0.499-1.117-1.117-1.117h-2.628V278.958z"/>
		<path style="fill-rule:evenodd;clip-rule:evenodd;fill:#BFCCE8;" d="M297.397,58.792c0-0.617-0.5-1.118-1.117-1.118
			c-0.617,0-1.117,0.5-1.117,1.118v2.627h-2.628c-0.617,0-1.117,0.501-1.117,1.118c0,0.618,0.5,1.117,1.117,1.117h2.628v2.628
			c0,0.617,0.5,1.117,1.117,1.117c0.618,0,1.117-0.499,1.117-1.117v-2.628h2.628c0.618,0,1.118-0.5,1.118-1.117
			c0-0.617-0.5-1.118-1.118-1.118h-2.628V58.792z"/>
		<path style="fill-rule:evenodd;clip-rule:evenodd;fill:#BFCCE8;" d="M124.048,162.151c0-0.618-0.5-1.118-1.118-1.118
			c-0.616,0-1.117,0.5-1.117,1.118v2.627h-2.627c-0.617,0-1.118,0.5-1.118,1.118c0,0.617,0.501,1.118,1.118,1.118h2.627v2.627
			c0,0.617,0.501,1.118,1.117,1.118c0.618,0,1.118-0.5,1.118-1.118v-2.627h2.628c0.617,0,1.118-0.501,1.118-1.118
			c0-0.618-0.501-1.118-1.118-1.118h-2.628V162.151z"/>
		<path style="fill-rule:evenodd;clip-rule:evenodd;fill:#BFCCE8;" d="M106.334,52.068c0-0.618-0.499-1.118-1.117-1.118
			c-0.617,0-1.117,0.5-1.117,1.118v2.627h-2.628c-0.617,0-1.117,0.5-1.117,1.118s0.5,1.118,1.117,1.118h2.628v2.628
			c0,0.617,0.5,1.117,1.117,1.117c0.618,0,1.117-0.5,1.117-1.117v-2.628h2.628c0.617,0,1.117-0.5,1.117-1.118
			s-0.501-1.118-1.117-1.118h-2.628V52.068z"/>
		<path style="fill-rule:evenodd;clip-rule:evenodd;fill:#BFCCE8;" d="M46.864,267.173c0-0.618-0.5-1.117-1.117-1.117
			c-0.618,0-1.117,0.499-1.117,1.117v2.628h-2.628c-0.618,0-1.117,0.5-1.117,1.117s0.5,1.118,1.117,1.118h2.628v2.628
			c0,0.616,0.5,1.117,1.117,1.117c0.617,0,1.117-0.501,1.117-1.117v-2.628h2.628c0.617,0,1.118-0.501,1.118-1.118
			s-0.501-1.117-1.118-1.117h-2.628V267.173z"/>
		<path style="fill-rule:evenodd;clip-rule:evenodd;fill:#BFCCE8;" d="M587.155,173.539c0-0.618-0.5-1.118-1.117-1.118
			s-1.117,0.5-1.117,1.118v2.627h-2.628c-0.617,0-1.117,0.501-1.117,1.118c0,0.617,0.5,1.118,1.117,1.118h2.628v2.628
			c0,0.617,0.5,1.118,1.117,1.118s1.117-0.501,1.117-1.118v-2.628h2.628c0.617,0,1.117-0.501,1.117-1.118
			c0-0.617-0.5-1.118-1.117-1.118h-2.628V173.539z"/>
		<path style="fill-rule:evenodd;clip-rule:evenodd;fill:#BFCCE8;" d="M601.074,319.051c0-0.617-0.5-1.118-1.117-1.118
			s-1.117,0.501-1.117,1.118v2.628h-2.628c-0.617,0-1.117,0.5-1.117,1.117s0.5,1.118,1.117,1.118h2.628v2.627
			c0,0.617,0.5,1.118,1.117,1.118s1.117-0.501,1.117-1.118v-2.627h2.628c0.616,0,1.117-0.501,1.117-1.118s-0.501-1.117-1.117-1.117
			h-2.628V319.051z"/>
		<path style="fill-rule:evenodd;clip-rule:evenodd;fill:#333333;" d="M325.184,221.968c0-0.617-0.501-1.118-1.117-1.118
			c-0.618,0-1.118,0.501-1.118,1.118v2.627h-2.627c-0.618,0-1.118,0.501-1.118,1.118c0,0.617,0.501,1.117,1.118,1.117h2.627v2.628
			c0,0.618,0.5,1.118,1.118,1.118c0.616,0,1.117-0.5,1.117-1.118v-2.628h2.628c0.616,0,1.117-0.5,1.117-1.117
			c0-0.617-0.501-1.118-1.117-1.118h-2.628V221.968z"/>
		<path style="fill-rule:evenodd;clip-rule:evenodd;fill:#333333;" d="M244.204,139.722c0-0.618-0.501-1.118-1.117-1.118
			c-0.618,0-1.117,0.5-1.117,1.118v2.627h-2.628c-0.618,0-1.118,0.501-1.118,1.118c0,0.617,0.501,1.117,1.118,1.117h2.628v2.628
			c0,0.617,0.5,1.117,1.117,1.117c0.616,0,1.117-0.5,1.117-1.117v-2.628h2.628c0.616,0,1.117-0.5,1.117-1.117
			c0-0.617-0.501-1.118-1.117-1.118h-2.628V139.722z"/>
		<path style="fill-rule:evenodd;clip-rule:evenodd;fill:#333333;" d="M390.98,157.436c0-0.617-0.501-1.118-1.117-1.118
			c-0.618,0-1.118,0.501-1.118,1.118v2.628h-2.627c-0.618,0-1.118,0.5-1.118,1.118c0,0.617,0.5,1.117,1.118,1.117h2.627v2.628
			c0,0.617,0.5,1.117,1.118,1.117c0.616,0,1.117-0.5,1.117-1.117v-2.628h2.628c0.617,0,1.117-0.501,1.117-1.117
			c0-0.618-0.5-1.118-1.117-1.118h-2.628V157.436z"/>
		<path style="fill-rule:evenodd;clip-rule:evenodd;fill:#333333;" d="M463.103,385.194c0-0.617-0.5-1.118-1.117-1.118
			c-0.618,0-1.117,0.501-1.117,1.118v2.628h-2.628c-0.618,0-1.117,0.5-1.117,1.117c0,0.617,0.499,1.117,1.117,1.117h2.628v2.628
			c0,0.617,0.499,1.117,1.117,1.117c0.617,0,1.117-0.5,1.117-1.117v-2.628h2.629c0.616,0,1.116-0.5,1.116-1.117
			c0-0.617-0.5-1.117-1.116-1.117h-2.629V385.194z"/>
		<path style="fill-rule:evenodd;clip-rule:evenodd;fill:#333333;" d="M616.207,383.929c0-0.617-0.5-1.118-1.116-1.118
			c-0.618,0-1.118,0.501-1.118,1.118v2.628h-2.627c-0.618,0-1.118,0.5-1.118,1.117c0,0.616,0.5,1.117,1.118,1.117h2.627v2.628
			c0,0.616,0.5,1.117,1.118,1.117c0.616,0,1.116-0.501,1.116-1.117v-2.628h2.629c0.616,0,1.117-0.501,1.117-1.117
			c0-0.617-0.501-1.117-1.117-1.117h-2.629V383.929z"/>
	</g>
</g>
</svg>
